<svg height="117" viewBox="0 0 33.866667 30.95625" width="128" xmlns="http://www.w3.org/2000/svg">
  <path d="m22.377117 29.818227-1.006805-8.434016h-1.352467l.839001 9.572041h4.568876l-1.02962-.779279z" fill="#b1742a" />
  <path d="m24.527227.13683031c-2.017468.00004028-3.631416 1.33229069-3.594924 3.37908339.01549.8694893.286261 1.5315557.752756 2.0013132v5.2120311l-2.144231-2.0845186-15.4926826 14.8011066 15.2993556-.732199 6.588819-4.947243.759121-2.165766-1.513835-1.471742-.593689-1.69101v-5.8003336c1.530722-.2405154 3.849682-1.6892387 4.074086-3.1470893-.425279-1.1701875-2.114739-3.35368216-4.134776-3.35363279z" fill="#fff" />
  <path d="m4.1593157 23.445808h15.3440453c3.568876-1.506661 7.329111-4.571436 7.191944-7.845048-1.737399 2.560369-3.456792 4.299812-5.864862 5.450371-5.065577 2.420299-12.3434156 1.626411-16.6711273 2.394677zm24.4968153-19.9426202c-.615118 1.4438579-2.717146 2.902858-4.334957 2.9028593-.07606 0-.149478-.00364-.223673-.00637v6.6749619l1.084105 1.054249v-7.3327611c1.525871-.4615295 3.579754-2.1347942 3.579754-3.2802171z" fill="#e0e0e0" />
  <path d="m5.7533016 23.161743 4.9732184-6.008407 4.973215-2.933412v6.554661l-9.9464334 8.941819z" fill="#b3b3b3" />
  <path d="m5.7533016 20.086751 9.9464334-8.941819v3.074992l-9.9464334 8.941819z" fill="#ccc" />
  <path d="m1.6959043 18.452595 3.7598659 3.236657h-2.260716l-3.19505406 3.194566h7.84471916l3.6507207-3.194566h-5.5614882l1.8192425-1.75219-1.5055126-.989645z" fill="#0d0d0d" />
  <path d="m1.6959043 18.452595 6.05729 1.484467 1.5412411-1.484467z" fill="#565656" />
  <path d="m26.858017 3.7430822 1.494141.7973055 3.498176-.2200214 1.375543.2940358.509716-.5903868-5.793995-.608398z" fill="#b1742a" />
  <path d="m28.229525 2.6391708-1.371508 1.1039114 7.008651.3562116-.486227-.906364-1.117072-.013031z" fill="#fcb320" />
  <path d="m33.015268 4.1897277-.791039.2105579.936776.2002537z" fill="#96412a" />
  <path d="m25.840032 2.3231222c0 .2316483-.187391.4190422-.419405.4190422-.230931 0-.820241-.4190422-.820241-.4190422s.588946-.4179872.820241-.4179872c.232014-.0003521.419405.1873914.419405.4179872z" fill="#0d0d0d" />
  <path d="m18.278754 29.818227.671202-8.434016s-.171157-.396676-.766521-.396676c-.59502 0-.585617.396676-.585617.396676l-.839012 9.572041h4.568555l-1.02963-.779279z" fill="#fcb320" />
</svg>
