<?xml version="1.0" encoding="UTF-8" standalone="no"?>
<svg
   xmlns:dc="http://purl.org/dc/elements/1.1/"
   xmlns:cc="http://creativecommons.org/ns#"
   xmlns:rdf="http://www.w3.org/1999/02/22-rdf-syntax-ns#"
   xmlns:svg="http://www.w3.org/2000/svg"
   xmlns="http://www.w3.org/2000/svg"
   xmlns:sodipodi="http://sodipodi.sourceforge.net/DTD/sodipodi-0.dtd"
   xmlns:inkscape="http://www.inkscape.org/namespaces/inkscape"
   width="600"
   height="600"
   viewBox="0 0 158.75 158.75"
   version="1.1"
   id="svg374"
   inkscape:version="1.0.1 (3bc2e813f5, 2020-09-07)"
   sodipodi:docname="SeaGL_avatar_profile_pic-mic.svg"
   inkscape:export-filename="/home/krause/Documents/seagl/mastodom/final/SeaGL_avatar_profile_pic.png"
   inkscape:export-xdpi="96"
   inkscape:export-ydpi="96">
  <defs
     id="defs368" />
  <sodipodi:namedview
     id="base"
     pagecolor="#ffffff"
     bordercolor="#666666"
     borderopacity="1.0"
     inkscape:pageopacity="0.0"
     inkscape:pageshadow="2"
     inkscape:zoom="0.35"
     inkscape:cx="402.95906"
     inkscape:cy="249.62167"
     inkscape:document-units="mm"
     inkscape:current-layer="layer1"
     inkscape:document-rotation="0"
     showgrid="false"
     inkscape:window-width="1366"
     inkscape:window-height="704"
     inkscape:window-x="0"
     inkscape:window-y="0"
     inkscape:window-maximized="1"
     units="px">
    <sodipodi:guide
       position="0,0"
       orientation="158.75,0"
       id="guide441" />
    <sodipodi:guide
       position="158.75,0"
       orientation="158.75,0"
       id="guide443" />
    <sodipodi:guide
       position="0,0"
       orientation="0,158.75"
       id="guide445" />
    <sodipodi:guide
       position="0,158.75"
       orientation="0,158.75"
       id="guide447" />
  </sodipodi:namedview>
  <metadata
     id="metadata371">
    <rdf:RDF>
      <cc:Work
         rdf:about="">
        <dc:format>image/svg+xml</dc:format>
        <dc:type
           rdf:resource="http://purl.org/dc/dcmitype/StillImage" />
        <dc:title></dc:title>
      </cc:Work>
    </rdf:RDF>
  </metadata>
  <g
     inkscape:label="Layer 1"
     inkscape:groupmode="layer"
     id="layer1">
    <rect
       style="fill:#ffffff;fill-rule:evenodd;stroke-width:0.264583;fill-opacity:1"
       id="rect549"
       width="158.75"
       height="158.75"
       x="0"
       y="0" />
    <g
       id="g1179"
       transform="matrix(2.0390115,0,0,2.0390115,29.74206,25.426096)"
       inkscape:export-xdpi="200"
       inkscape:export-ydpi="200"
       style="opacity:0.996762">
      <circle
         id="circle2"
         r="22.699371"
         fill="#1d7193"
         cy="23.228592"
         cx="24.341667" />
      <path
         id="path4"
         fill="#0c5a73"
         d="M 24.341667,19.226734 A 52.246084,52.246084 0 0 0 1.6851685,24.443987 22.699372,22.699372 0 0 0 24.341667,45.927948 22.699372,22.699372 0 0 0 46.979563,24.458456 52.246084,52.246084 0 0 0 24.341667,19.226734 Z" />
      <circle
         id="circle6"
         stroke-width="1.05833"
         stroke="#000000"
         r="22.699371"
         fill="none"
         cy="23.228592"
         cx="24.341667" />
      <path
         id="path8"
         fill="#b1742a"
         d="M 28.542953,37.069976 27.479938,28.165079 H 26.05196 l 0.885844,10.106459 h 4.823962 l -1.087105,-0.822787 z" />
      <path
         id="path10"
         fill="#ffffff"
         d="m 30.813106,5.7314332 c -2.130105,4.2e-5 -3.834162,1.4066739 -3.795633,3.5677409 0.01635,0.9180349 0.302244,1.6170649 0.794784,2.1130489 v 5.503024 L 25.548312,14.714348 9.1906537,30.341817 25.34419,29.568739 32.300871,24.345285 33.102374,22.058603 31.50402,20.504692 30.877185,18.719271 V 12.595097 C 32.493369,12.341155 34.941799,10.811548 35.178731,9.2723025 34.729709,8.0367814 32.945925,5.7313802 30.813106,5.7314332 Z" />
      <path
         id="path12"
         fill="#e0e0e0"
         d="M 9.3080308,30.341778 H 25.508753 c 3.768129,-1.590781 7.738303,-4.826665 7.593478,-8.283047 -1.8344,2.703318 -3.649788,4.539875 -6.192304,5.754671 -5.348394,2.555428 -13.032563,1.717215 -17.6018962,2.528376 z M 35.172532,9.285738 c -0.649462,1.524471 -2.868848,3.064929 -4.576982,3.06493 -0.0803,0 -0.157824,-0.0039 -0.236162,-0.0067 V 19.3916 l 1.144632,1.11311 v -7.742163 c 1.611062,-0.487296 3.779616,-2.253981 3.779616,-3.463355 z" />
      <path
         id="path14"
         fill="#b3b3b3"
         d="m 10.991011,30.041852 5.250879,-6.343862 5.250875,-3.097189 v 6.920616 l -10.501754,9.441051 z" />
      <path
         id="path16"
         fill="#cccccc"
         d="m 10.991011,26.79518 10.501754,-9.44105 v 3.246671 l -10.501754,9.441051 z" />
      <path
         id="path18"
         fill="#0d0d0d"
         d="m 6.7070842,25.069788 3.9697838,3.417363 H 8.2899334 l -3.3734376,3.372922 h 8.2826992 l 3.854545,-3.372922 h -5.871993 l 1.920813,-1.850017 -1.589567,-1.044897 z" />
      <path
         id="path20"
         fill="#565656"
         d="m 6.7070842,25.069788 6.3954758,1.567346 1.627291,-1.567346 z" />
      <path
         id="path22"
         fill="#b1742a"
         d="m 33.274028,9.539025 1.577559,0.841821 3.693483,-0.232305 1.452342,0.310452 0.538175,-0.623348 -6.117481,-0.642367 z" />
      <path
         id="path24"
         fill="#fcb320"
         d="m 34.722108,8.373481 -1.44808,1.165544 7.399951,0.376101 -0.513374,-0.956968 -1.179439,-0.01376 z" />
      <path
         id="path26"
         fill="#96412a"
         d="m 39.775045,10.010609 -0.835204,0.222313 0.989078,0.211434 z" />
      <path
         id="path28"
         fill="#0d0d0d"
         d="m 32.199207,8.039788 c 0,0.244581 -0.197853,0.442437 -0.442821,0.442437 -0.243825,0 -0.866036,-0.442437 -0.866036,-0.442437 0,0 0.621827,-0.441325 0.866036,-0.441325 0.244968,-3.71e-4 0.442821,0.197855 0.442821,0.441325 z" />
      <path
         id="path30"
         fill="#fcb320"
         d="m 24.215774,37.069976 0.708675,-8.904897 c 0,0 -0.180712,-0.418823 -0.809315,-0.418823 -0.628241,0 -0.618313,0.418823 -0.618313,0.418823 l -0.885855,10.106459 h 4.823622 l -1.087116,-0.822787 z" />
      <path
         id="path32"
         d="m 5.5779542,38.292755 v 0.466638 3.044775 H 0 L 0.4650879,42.525054 3.574459,47.359383 0,52.916668 h 10.509953 v -2.174544 h 27.663428 v 2.174544 h 10.509954 l -3.574461,-5.557285 3.109373,-4.834329 0.465088,-0.720886 h -5.577954 v -3.511413 z" />
      <path
         id="path34"
         fill="#cccccc"
         d="m 1.7146241,42.73998 2.9729452,4.619327 -2.9729452,4.619845 H 8.385018 L 5.5779542,50.740854 V 42.73998 Z m 45.2540859,0 -2.972945,4.619327 2.972945,4.619845 H 40.298316 L 43.10538,50.740854 V 42.73998 Z" />
      <path
         id="path36"
         fill="#828282"
         d="m 7.9033938,50.740854 1.6706991,0.738015 v -0.738015 z m 32.8765462,0 -1.670699,0.738015 v -0.738015 z" />
      <path
         id="path38"
         fill="#efefef"
         d="M 6.515625,39.228255 H 42.167969 V 49.804427 H 6.515625 Z" />
      <path
         id="path40"
         fill="#0c5a73"
         d="m 32.272568,47.693606 v -6.424225 q 0,-0.197668 0.189243,-0.296502 0.189245,-0.09884 0.458171,-0.09884 0.268926,0 0.45817,0.09884 0.189244,0.09884 0.189244,0.296502 v 5.702736 h 2.430293 q 0.179284,0 0.278886,0.168017 0.109562,0.168019 0.109562,0.395337 0,0.227319 -0.109562,0.395337 -0.09961,0.168019 -0.278886,0.168019 H 32.8403 q -0.229084,0 -0.398408,-0.108718 -0.169324,-0.108718 -0.169324,-0.296503 z m -5.701759,-1.798783 v -2.757475 q 0,-1.166244 0.627494,-1.709832 0.637454,-0.553472 1.663357,-0.553472 1.055783,0 1.713157,0.513938 0.667335,0.513939 0.667335,1.38368 0,0.355802 -0.159364,0.484287 -0.149403,0.128485 -0.48805,0.128485 -0.637454,0 -0.647415,-0.405221 -0.02989,-0.43487 -0.249005,-0.701723 -0.219125,-0.276736 -0.786857,-0.276736 -1.045823,0 -1.045823,1.136594 v 2.757475 q 0,1.136594 1.035863,1.136594 0.49801,0 0.766936,-0.286619 0.278886,-0.28662 0.278886,-0.849975 v -0.583122 h -0.806777 q -0.189244,0 -0.298806,-0.148251 -0.09961,-0.148251 -0.09961,-0.355804 0,-0.197668 0.109562,-0.345919 0.109568,-0.158135 0.288852,-0.158135 h 1.693237 q 0.189244,0 0.298806,0.128485 0.109563,0.118601 0.109563,0.286619 v 1.176127 q 0,1.176127 -0.637454,1.719716 -0.637454,0.543588 -1.703197,0.543588 -1.065744,0 -1.703198,-0.543588 -0.627494,-0.543589 -0.627494,-1.719716 z m -4.693907,0.968575 q 0,-0.770907 0.597613,-1.067409 0.597614,-0.306386 1.733078,-0.306386 h 0.47809 v -0.207552 q 0,-0.494171 -0.278885,-0.859858 -0.268927,-0.365686 -0.816739,-0.365686 -0.418329,0 -0.737056,0.148251 -0.318727,0.138368 -0.348607,0.138368 -0.139443,0 -0.229085,-0.128485 -0.07968,-0.138368 -0.07968,-0.286619 0,-0.227318 0.448209,-0.395337 0.458171,-0.177901 0.966142,-0.177901 0.976101,0 1.434271,0.553471 0.46813,0.543588 0.46813,1.363912 v 2.530156 q 0,0.128485 -0.119522,0.217436 -0.109563,0.07906 -0.288846,0.07906 -0.159364,0 -0.268926,-0.07906 -0.109563,-0.08895 -0.109563,-0.217436 v -0.395336 q -0.677294,0.770907 -1.503992,0.770907 -0.597614,0 -0.976101,-0.336037 -0.368529,-0.336036 -0.368529,-0.978459 z m 0.836659,-0.08895 q 0,0.365686 0.209164,0.553472 0.209164,0.187785 0.557772,0.187785 0.41833,0 0.806778,-0.326153 0.398408,-0.336036 0.398408,-0.681956 v -0.513938 h -0.348607 q -0.288846,0 -0.498011,0.01976 -0.209165,0.0099 -0.43825,0.0593 -0.219124,0.03954 -0.368527,0.128484 -0.139444,0.07906 -0.229086,0.227319 -0.08964,0.138368 -0.08964,0.34592 z M 17.37644,46.26051 v -1.037759 q 0,-0.761024 0.577693,-1.314496 0.587653,-0.553471 1.404391,-0.553471 0.776897,0 1.344628,0.523821 0.567733,0.513938 0.567733,1.294729 0,0.286619 -0.06972,0.46452 -0.06972,0.168019 -0.219125,0.247086 -0.139443,0.06918 -0.268926,0.08894 -0.119523,0.01976 -0.328687,0.01976 H 18.20314 v 0.296502 q 0,0.543588 0.388448,0.869742 0.398409,0.326152 1.025903,0.326152 0.328688,0 0.567733,-0.09884 0.249005,-0.09884 0.398409,-0.187785 0.149403,-0.09884 0.239044,-0.09884 0.139444,0 0.239045,0.128484 0.09961,0.118601 0.09961,0.247086 0,0.227319 -0.458171,0.464521 -0.448209,0.237202 -1.115543,0.237202 -0.976102,0 -1.593636,-0.523822 -0.617533,-0.533704 -0.617533,-1.393562 z m 0.826698,-0.820324 h 1.84264 q 0.258967,0 0.348608,-0.0593 0.08965,-0.06918 0.08965,-0.25697 0,-0.444753 -0.328688,-0.78079 -0.328686,-0.336036 -0.806777,-0.336036 -0.46813,0 -0.806777,0.316269 -0.338648,0.306386 -0.338648,0.761023 z m -5.905942,1.620881 q 0,-0.158135 0.109562,-0.306386 0.119523,-0.148251 0.258967,-0.148251 0.08964,0 0.229084,0.128484 0.139443,0.118602 0.288846,0.276736 0.149404,0.148252 0.46813,0.276736 0.318727,0.118601 0.717136,0.118601 0.647415,0 1.015942,-0.306387 0.368529,-0.316268 0.368529,-0.919157 0,-0.543589 -0.338647,-0.879625 -0.338648,-0.34592 -0.816739,-0.523822 -0.478089,-0.177901 -0.966141,-0.375569 -0.47809,-0.207552 -0.816737,-0.622656 -0.338648,-0.424987 -0.338648,-1.087176 0,-0.513939 0.199204,-0.889509 0.199205,-0.385454 0.527892,-0.573238 0.338647,-0.197669 0.697215,-0.28662 0.358568,-0.08895 0.766937,-0.08895 0.617534,0 1.175306,0.177901 0.567732,0.168018 0.567732,0.474404 0,0.138368 -0.09961,0.296503 -0.0996,0.158135 -0.258966,0.158135 -0.03984,0 -0.45817,-0.187785 -0.418329,-0.187785 -0.9263,-0.187785 -0.607573,0 -0.986061,0.247086 -0.368529,0.247085 -0.368529,0.78079 0,0.454637 0.338647,0.741257 0.338648,0.276735 0.816739,0.444753 0.48805,0.168019 0.966141,0.385454 0.47809,0.217436 0.816737,0.701723 0.338648,0.474404 0.338648,1.215661 0,1.027876 -0.597613,1.551697 -0.597613,0.523822 -1.583675,0.523822 -0.886459,0 -1.503993,-0.375571 -0.607573,-0.375569 -0.607573,-0.741256 z" />
      <circle
         r="1.1644595"
         cy="9.0112219"
         cx="28.787254"
         id="path50"
         style="fill:#000000;fill-opacity:1;fill-rule:evenodd;stroke-width:0.264583" />
      <rect
         y="5.783474"
         x="28.423744"
         height="2.4597559"
         width="0.751297"
         id="rect877"
         style="fill:#000000;fill-opacity:1;stroke-width:0.264583" />
      <path
         id="path899"
         d="m 29.467189,10.005333 0.869926,0.898422 1.924386,0.305289 0.764487,-0.03489 v 0 l -0.105444,0.06978 h -0.171352"
         style="fill:none;stroke:#000000;stroke-width:0.264583px;stroke-linecap:butt;stroke-linejoin:miter;stroke-opacity:1" />
      <ellipse
         ry="0.62705475"
         rx="0.62323153"
         cy="10.98129"
         cx="33.583313"
         id="path901"
         style="fill:#000000;fill-opacity:1;stroke-width:0.264583" />
    </g>
  </g>
</svg>
