<svg height="128" viewBox="0 0 33.866667 33.866667" width="128" xmlns="http://www.w3.org/2000/svg">
  <circle cx="16.933334" cy="16.933334" fill="#1d7193" r="16.933334" />
  <path d="m16.93333376 15.21457551253a69.39076445676 69.39076445676 0 0 0 -16.91783082992 2.15955832525 16.93333455375 16.93333455375 0 0 0 16.91783082992 16.49253368223 16.93333455375 16.93333455375 0 0 0 16.91007953025-16.47134637753 69.39076445676 69.39076445676 0 0 0 -16.91007953025-2.18074562995z" fill="#0c5a73" />
  <path d="m20.234686 28.419588-.792992-6.642897h-1.065246l.660824 7.539242h3.598592l-.810962-.613785z" fill="#b1742a" />
  <path d="m21.92818 5.0415827c-1.589021.0000317-2.860218 1.0493543-2.831476 2.6614728.0122.6848373.225469 1.2063017.592895 1.5762976v4.1051599l-1.688864-1.641832-12.2025266 11.657819 12.0502556-.576703 5.189562-3.896605.597908-1.705826-1.192345-1.15919-.467607-1.331893v-4.568526c1.205645-.1894377 3.032131-1.3304979 3.208878-2.4787471-.334963-.9216767-1.665635-2.6414661-3.25668-2.6414272z" fill="#fff" />
  <path d="m5.8857697 23.40047h12.0854553c2.810959-1.186694 5.772639-3.600607 5.664602-6.179007-1.36843 2.016627-2.722678 3.386667-4.61935 4.292883-3.989809 1.906305-9.7220648 1.281013-13.1307073 1.886124zm19.2944663-15.7074378c-.484487 1.1372281-2.140111 2.2863827-3.414349 2.2863838-.05991 0-.117734-.00287-.176173-.00501v5.25741l.853875.830361v-5.775518c1.201825-.3635148 2.819528-1.6814309 2.819528-2.5836022z" fill="#e0e0e0" />
  <path d="m7.1412433 23.176731 3.9170637-4.732411 3.917061-2.310448v5.162658l-7.8341247 7.042859z" fill="#b3b3b3" />
  <path d="m7.1412433 20.754771 7.8341247-7.042859v2.42196l-7.8341247 7.042859z" fill="#ccc" />
  <path d="m3.945509 19.467658 2.9613892 2.549293h-1.7806114l-2.5165254 2.516141h6.1787486l2.875423-2.516141h-4.3804039l1.432893-1.38008-1.1857893-.779475z" fill="#0d0d0d" />
  <path d="m3.945509 19.467658 4.7709131 1.169213 1.2139301-1.169213z" fill="#565656" />
  <path d="m23.763984 7.8819806 1.176833.6279831 2.755273-.1732959 1.083422.2315919.401468-.4650073-4.563533-.4791935z" fill="#b1742a" />
  <path d="m24.844227 7.0125052-1.080243.8694754 5.520235.2805635-.382968-.7138808-.879841-.0102639z" fill="#fcb320" />
  <path d="m28.61363 8.2337728-.623048.165842.737835.1577262z" fill="#96412a" />
  <path d="m22.962187 6.7635753c0 .1824535-.147595.3300509-.330337.3300509-.181888 0-.646047-.3300509-.646047-.3300509s.463872-.3292199.646047-.3292199c.182742-.0002773.330337.1475953.330337.3292199z" fill="#0d0d0d" />
  <path d="m17.006686 28.419588.528659-6.642897s-.134808-.312435-.603736-.312435c-.468656 0-.46125.312435-.46125.312435l-.660833 7.539242h3.598339l-.81097-.613785z" fill="#fcb320" />
</svg>
