<?xml version="1.0" encoding="UTF-8" standalone="no"?>
<svg
   width="216mm"
   height="303mm"
   viewBox="0 0 216 303"
   version="1.1"
   id="svg1093"
   sodipodi:docname="seagl2021_print_ad_2nd.svg"
   inkscape:version="1.1 (c68e22c387, 2021-05-23)"
   xmlns:inkscape="http://www.inkscape.org/namespaces/inkscape"
   xmlns:sodipodi="http://sodipodi.sourceforge.net/DTD/sodipodi-0.dtd"
   xmlns="http://www.w3.org/2000/svg"
   xmlns:svg="http://www.w3.org/2000/svg"
   xmlns:rdf="http://www.w3.org/1999/02/22-rdf-syntax-ns#"
   xmlns:cc="http://creativecommons.org/ns#"
   xmlns:dc="http://purl.org/dc/elements/1.1/">
  <defs
     id="defs1087">
    <rect
       x="-2692.0627"
       y="5419.6797"
       width="173.235"
       height="40.3661"
       id="rect10970" />
    <rect
       x="-2692.0627"
       y="5419.6797"
       width="173.235"
       height="40.3661"
       id="rect16217" />
    <rect
       x="-2692.0627"
       y="5419.6797"
       width="173.23502"
       height="49.29884"
       id="rect10980" />
    <rect
       x="-2692.0627"
       y="5419.6797"
       width="173.23502"
       height="49.29884"
       id="rect16220" />
    <rect
       x="-2692.0627"
       y="5419.6797"
       width="173.2381"
       height="50.860573"
       id="rect10986" />
    <rect
       x="-2692.0627"
       y="5419.6797"
       width="173.2381"
       height="50.860573"
       id="rect16223" />
  </defs>
  <sodipodi:namedview
     id="base"
     pagecolor="#ffffff"
     bordercolor="#666666"
     borderopacity="1.0"
     inkscape:pageopacity="0.0"
     inkscape:pageshadow="2"
     inkscape:zoom="0.98994949"
     inkscape:cx="287.3884"
     inkscape:cy="478.81231"
     inkscape:document-units="mm"
     inkscape:current-layer="layer1"
     inkscape:document-rotation="0"
     showgrid="false"
     inkscape:window-width="1920"
     inkscape:window-height="1011"
     inkscape:window-x="0"
     inkscape:window-y="0"
     inkscape:window-maximized="1"
     showguides="false"
     inkscape:guide-bbox="true"
     inkscape:pagecheckerboard="0">
    <sodipodi:guide
       position="0,0"
       orientation="303.0,0"
       id="guide1657" />
    <sodipodi:guide
       position="216,0"
       orientation="303.0,0"
       id="guide1659" />
    <sodipodi:guide
       position="0,0"
       orientation="0,216.0"
       id="guide1661" />
    <sodipodi:guide
       position="0,303"
       orientation="0,216.0"
       id="guide1663" />
    <sodipodi:guide
       position="213.00001,299.99999"
       orientation="0,-1"
       id="guide2103" />
    <sodipodi:guide
       position="213.00002,299.99998"
       orientation="1,0"
       id="guide2105" />
    <sodipodi:guide
       position="3.0000001,299.99999"
       orientation="1,0"
       id="guide2107" />
    <sodipodi:guide
       position="3.0000001,2.9999999"
       orientation="0,-1"
       id="guide2109" />
    <sodipodi:guide
       position="200.00001,284.49999"
       orientation="0,-1"
       id="guide2111" />
    <sodipodi:guide
       position="200.00001,284.49999"
       orientation="1,0"
       id="guide2113" />
    <sodipodi:guide
       position="16,284.49999"
       orientation="1,0"
       id="guide2115" />
    <sodipodi:guide
       position="200.00001,18.499999"
       orientation="0,-1"
       id="guide2117" />
  </sodipodi:namedview>
  <metadata
     id="metadata1090">
    <rdf:RDF>
      <cc:Work
         rdf:about="">
        <dc:format>image/svg+xml</dc:format>
        <dc:type
           rdf:resource="http://purl.org/dc/dcmitype/StillImage" />
      </cc:Work>
    </rdf:RDF>
  </metadata>
  <g
     inkscape:label="Layer 1"
     inkscape:groupmode="layer"
     id="layer1">
    <g
       id="g2099"
       transform="matrix(1.0082035,0,0,1,-0.88597811,0)">
      <rect
         style="fill:#0c5a73;fill-opacity:1;stroke:none;stroke-width:0.780454;paint-order:stroke fill markers"
         id="rect1243-5"
         width="214.24234"
         height="302.99988"
         x="0.87887228"
         y="-4.8384554e-06"
         rx="1.5711909e-11"
         ry="1.5711909e-11" />
      <path
         id="rect11216-6-7"
         style="fill:#1d7193;fill-opacity:1;stroke:none;stroke-width:1.74337;paint-order:stroke fill markers"
         d="M 309.9043,281.87891 A 1888.2713,1888.2713 0 0 0 3.3222656,307.33008 v 61.53711 22.87695 655.60936 H 813.05664 V 391.74414 368.86719 349.49023 a 1888.2713,1888.2713 0 0 0 -500.75781,-67.61132 1888.2713,1888.2713 0 0 0 -2.39453,0 z"
         transform="scale(0.26458333)" />
      <path
         id="path1020-0-9"
         style="fill:#0c5a73;fill-opacity:1;stroke:none;stroke-width:2.94975;paint-order:stroke fill markers"
         d="M 309.53711,866.56641 A 1886.0181,1888.2705 0 0 0 3.3222656,892.01758 v 53.10156 31.3125 168.76566 H 813.05664 V 945.11914 h -0.9668 v -10.94141 a 1886.0181,1888.2705 0 0 0 -500.16015,-67.61132 1886.0181,1888.2705 0 0 0 -2.39258,0 z"
         transform="scale(0.26458333)" />
    </g>
    <text
       xml:space="preserve"
       style="font-style:normal;font-weight:normal;font-size:6.61527px;line-height:1.25;font-family:sans-serif;fill:#ffffff;fill-opacity:1;stroke:none;stroke-width:0.269928"
       x="20.063196"
       y="280.1076"
       id="text1714-6"><tspan
         sodipodi:role="line"
         x="20.063196"
         y="280.1076"
         style="font-size:6.61527px;fill:#ffffff;stroke-width:0.269928"
         id="tspan1734-2">Visit SeaGL.org for more information!</tspan></text>
    <g
       id="g20824">
      <g
         id="g5256-75-1-9-8-6-2-7"
         transform="matrix(0.83446718,0,0,0.83446718,19.632942,21.100756)"
         style="stroke-width:0.612705">
        <circle
           id="circle2-3-2-1-6-98-1-9"
           r="22.699371"
           fill="#1d7193"
           cy="23.228592"
           cx="24.341667"
           style="stroke-width:0.270379" />
        <path
           id="path4-8-9-2-0-1-7-7"
           fill="#0c5a73"
           d="M 24.341667,19.226734 A 52.246084,52.246084 0 0 0 1.6851685,24.443987 22.699372,22.699372 0 0 0 24.341667,45.927948 22.699372,22.699372 0 0 0 46.979563,24.458456 52.246084,52.246084 0 0 0 24.341667,19.226734 Z"
           style="stroke-width:0.270379" />
        <circle
           id="circle6-8-3-7-4-33-5-6"
           stroke-width="0.648443"
           stroke="#000000"
           r="22.699371"
           fill="none"
           cy="23.228592"
           cx="24.341667" />
        <path
           id="path8-3-1-0-8-3-6-2"
           fill="#b1742a"
           d="M 28.542953,37.069976 27.479938,28.165079 H 26.05196 l 0.885844,10.106459 h 4.823962 l -1.087105,-0.822787 z"
           style="stroke-width:0.270379" />
        <path
           id="path10-1-9-9-8-7-5-7"
           fill="#ffffff"
           d="m 30.813106,5.7314332 c -2.130105,4.2e-5 -3.834162,1.4066739 -3.795633,3.5677409 0.01635,0.9180349 0.302244,1.6170649 0.794784,2.1130489 v 5.503024 L 25.548312,14.714348 9.1906537,30.341817 25.34419,29.568739 32.300871,24.345285 33.102374,22.058603 31.50402,20.504692 30.877185,18.719271 V 12.595097 C 32.493369,12.341155 34.941799,10.811548 35.178731,9.2723025 34.729709,8.0367814 32.945925,5.7313802 30.813106,5.7314332 Z"
           style="stroke-width:0.270379" />
        <path
           id="path12-8-4-3-8-98-4-1"
           fill="#e0e0e0"
           d="M 9.3080308,30.341778 H 25.508753 c 3.768129,-1.590781 7.738303,-4.826665 7.593478,-8.283047 -1.8344,2.703318 -3.649788,4.539875 -6.192304,5.754671 -5.348394,2.555428 -13.032563,1.717215 -17.6018962,2.528376 z M 35.172532,9.285738 c -0.649462,1.524471 -2.868848,3.064929 -4.576982,3.06493 -0.0803,0 -0.157824,-0.0039 -0.236162,-0.0067 V 19.3916 l 1.144632,1.11311 v -7.742163 c 1.611062,-0.487296 3.779616,-2.253981 3.779616,-3.463355 z"
           style="stroke-width:0.270379" />
        <path
           id="path14-96-7-6-9-6-2-5"
           fill="#b3b3b3"
           d="m 10.991011,30.041852 5.250879,-6.343862 5.250875,-3.097189 v 6.920616 l -10.501754,9.441051 z"
           style="stroke-width:0.270379" />
        <path
           id="path16-4-8-0-7-7-2-8"
           fill="#cccccc"
           d="m 10.991011,26.79518 10.501754,-9.44105 v 3.246671 l -10.501754,9.441051 z"
           style="stroke-width:0.270379" />
        <path
           id="path18-3-4-6-7-0-1-8"
           fill="#0d0d0d"
           d="m 6.7070842,25.069788 3.9697838,3.417363 H 8.2899334 l -3.3734376,3.372922 h 8.2826992 l 3.854545,-3.372922 h -5.871993 l 1.920813,-1.850017 -1.589567,-1.044897 z"
           style="stroke-width:0.270379" />
        <path
           id="path20-33-5-2-6-4-7-4"
           fill="#565656"
           d="m 6.7070842,25.069788 6.3954758,1.567346 1.627291,-1.567346 z"
           style="stroke-width:0.270379" />
        <path
           id="path22-8-0-6-4-8-2-5"
           fill="#b1742a"
           d="m 33.274028,9.539025 1.577559,0.841821 3.693483,-0.232305 1.452342,0.310452 0.538175,-0.623348 -6.117481,-0.642367 z"
           style="stroke-width:0.270379" />
        <path
           id="path24-6-3-1-3-48-4-6"
           fill="#fcb320"
           d="m 34.722108,8.373481 -1.44808,1.165544 7.399951,0.376101 -0.513374,-0.956968 -1.179439,-0.01376 z"
           style="stroke-width:0.270379" />
        <path
           id="path26-0-6-8-0-16-1-5"
           fill="#96412a"
           d="m 39.775045,10.010609 -0.835204,0.222313 0.989078,0.211434 z"
           style="stroke-width:0.270379" />
        <path
           id="path28-4-1-7-3-8-6-6"
           fill="#0d0d0d"
           d="m 32.199207,8.039788 c 0,0.244581 -0.197853,0.442437 -0.442821,0.442437 -0.243825,0 -0.866036,-0.442437 -0.866036,-0.442437 0,0 0.621827,-0.441325 0.866036,-0.441325 0.244968,-3.71e-4 0.442821,0.197855 0.442821,0.441325 z"
           style="stroke-width:0.270379" />
        <path
           id="path30-8-0-9-0-5-5-8"
           fill="#fcb320"
           d="m 24.215774,37.069976 0.708675,-8.904897 c 0,0 -0.180712,-0.418823 -0.809315,-0.418823 -0.628241,0 -0.618313,0.418823 -0.618313,0.418823 l -0.885855,10.106459 h 4.823622 l -1.087116,-0.822787 z"
           style="stroke-width:0.270379" />
        <path
           id="path32-8-6-2-9-2-7-4"
           d="m 5.5779542,38.292755 v 0.466638 3.044775 H 0 L 0.4650879,42.525054 3.574459,47.359383 0,52.916668 h 10.509953 v -2.174544 h 27.663428 v 2.174544 h 10.509954 l -3.574461,-5.557285 3.109373,-4.834329 0.465088,-0.720886 h -5.577954 v -3.511413 z"
           style="stroke-width:0.612705" />
        <path
           id="path34-8-3-0-2-1-8-8"
           fill="#cccccc"
           d="m 1.7146241,42.73998 2.9729452,4.619327 -2.9729452,4.619845 H 8.385018 L 5.5779542,50.740854 V 42.73998 Z m 45.2540859,0 -2.972945,4.619327 2.972945,4.619845 H 40.298316 L 43.10538,50.740854 V 42.73998 Z"
           style="stroke-width:0.270379" />
        <path
           id="path36-9-2-2-5-9-5-8"
           fill="#828282"
           d="m 7.9033938,50.740854 1.6706991,0.738015 v -0.738015 z m 32.8765462,0 -1.670699,0.738015 v -0.738015 z"
           style="stroke-width:0.270379" />
        <path
           id="path38-7-0-3-4-96-9-3"
           fill="#efefef"
           d="M 6.515625,39.228255 H 42.167969 V 49.804427 H 6.515625 Z"
           style="stroke-width:0.270379" />
        <path
           id="path40-7-6-7-0-0-2-8"
           fill="#0c5a73"
           d="m 32.272568,47.693606 v -6.424225 q 0,-0.197668 0.189243,-0.296502 0.189245,-0.09884 0.458171,-0.09884 0.268926,0 0.45817,0.09884 0.189244,0.09884 0.189244,0.296502 v 5.702736 h 2.430293 q 0.179284,0 0.278886,0.168017 0.109562,0.168019 0.109562,0.395337 0,0.227319 -0.109562,0.395337 -0.09961,0.168019 -0.278886,0.168019 H 32.8403 q -0.229084,0 -0.398408,-0.108718 -0.169324,-0.108718 -0.169324,-0.296503 z m -5.701759,-1.798783 v -2.757475 q 0,-1.166244 0.627494,-1.709832 0.637454,-0.553472 1.663357,-0.553472 1.055783,0 1.713157,0.513938 0.667335,0.513939 0.667335,1.38368 0,0.355802 -0.159364,0.484287 -0.149403,0.128485 -0.48805,0.128485 -0.637454,0 -0.647415,-0.405221 -0.02989,-0.43487 -0.249005,-0.701723 -0.219125,-0.276736 -0.786857,-0.276736 -1.045823,0 -1.045823,1.136594 v 2.757475 q 0,1.136594 1.035863,1.136594 0.49801,0 0.766936,-0.286619 0.278886,-0.28662 0.278886,-0.849975 v -0.583122 h -0.806777 q -0.189244,0 -0.298806,-0.148251 -0.09961,-0.148251 -0.09961,-0.355804 0,-0.197668 0.109562,-0.345919 0.109568,-0.158135 0.288852,-0.158135 h 1.693237 q 0.189244,0 0.298806,0.128485 0.109563,0.118601 0.109563,0.286619 v 1.176127 q 0,1.176127 -0.637454,1.719716 -0.637454,0.543588 -1.703197,0.543588 -1.065744,0 -1.703198,-0.543588 -0.627494,-0.543589 -0.627494,-1.719716 z m -4.693907,0.968575 q 0,-0.770907 0.597613,-1.067409 0.597614,-0.306386 1.733078,-0.306386 h 0.47809 v -0.207552 q 0,-0.494171 -0.278885,-0.859858 -0.268927,-0.365686 -0.816739,-0.365686 -0.418329,0 -0.737056,0.148251 -0.318727,0.138368 -0.348607,0.138368 -0.139443,0 -0.229085,-0.128485 -0.07968,-0.138368 -0.07968,-0.286619 0,-0.227318 0.448209,-0.395337 0.458171,-0.177901 0.966142,-0.177901 0.976101,0 1.434271,0.553471 0.46813,0.543588 0.46813,1.363912 v 2.530156 q 0,0.128485 -0.119522,0.217436 -0.109563,0.07906 -0.288846,0.07906 -0.159364,0 -0.268926,-0.07906 -0.109563,-0.08895 -0.109563,-0.217436 v -0.395336 q -0.677294,0.770907 -1.503992,0.770907 -0.597614,0 -0.976101,-0.336037 -0.368529,-0.336036 -0.368529,-0.978459 z m 0.836659,-0.08895 q 0,0.365686 0.209164,0.553472 0.209164,0.187785 0.557772,0.187785 0.41833,0 0.806778,-0.326153 0.398408,-0.336036 0.398408,-0.681956 v -0.513938 h -0.348607 q -0.288846,0 -0.498011,0.01976 -0.209165,0.0099 -0.43825,0.0593 -0.219124,0.03954 -0.368527,0.128484 -0.139444,0.07906 -0.229086,0.227319 -0.08964,0.138368 -0.08964,0.34592 z M 17.37644,46.26051 v -1.037759 q 0,-0.761024 0.577693,-1.314496 0.587653,-0.553471 1.404391,-0.553471 0.776897,0 1.344628,0.523821 0.567733,0.513938 0.567733,1.294729 0,0.286619 -0.06972,0.46452 -0.06972,0.168019 -0.219125,0.247086 -0.139443,0.06918 -0.268926,0.08894 -0.119523,0.01976 -0.328687,0.01976 H 18.20314 v 0.296502 q 0,0.543588 0.388448,0.869742 0.398409,0.326152 1.025903,0.326152 0.328688,0 0.567733,-0.09884 0.249005,-0.09884 0.398409,-0.187785 0.149403,-0.09884 0.239044,-0.09884 0.139444,0 0.239045,0.128484 0.09961,0.118601 0.09961,0.247086 0,0.227319 -0.458171,0.464521 -0.448209,0.237202 -1.115543,0.237202 -0.976102,0 -1.593636,-0.523822 -0.617533,-0.533704 -0.617533,-1.393562 z m 0.826698,-0.820324 h 1.84264 q 0.258967,0 0.348608,-0.0593 0.08965,-0.06918 0.08965,-0.25697 0,-0.444753 -0.328688,-0.78079 -0.328686,-0.336036 -0.806777,-0.336036 -0.46813,0 -0.806777,0.316269 -0.338648,0.306386 -0.338648,0.761023 z m -5.905942,1.620881 q 0,-0.158135 0.109562,-0.306386 0.119523,-0.148251 0.258967,-0.148251 0.08964,0 0.229084,0.128484 0.139443,0.118602 0.288846,0.276736 0.149404,0.148252 0.46813,0.276736 0.318727,0.118601 0.717136,0.118601 0.647415,0 1.015942,-0.306387 0.368529,-0.316268 0.368529,-0.919157 0,-0.543589 -0.338647,-0.879625 -0.338648,-0.34592 -0.816739,-0.523822 -0.478089,-0.177901 -0.966141,-0.375569 -0.47809,-0.207552 -0.816737,-0.622656 -0.338648,-0.424987 -0.338648,-1.087176 0,-0.513939 0.199204,-0.889509 0.199205,-0.385454 0.527892,-0.573238 0.338647,-0.197669 0.697215,-0.28662 0.358568,-0.08895 0.766937,-0.08895 0.617534,0 1.175306,0.177901 0.567732,0.168018 0.567732,0.474404 0,0.138368 -0.09961,0.296503 -0.0996,0.158135 -0.258966,0.158135 -0.03984,0 -0.45817,-0.187785 -0.418329,-0.187785 -0.9263,-0.187785 -0.607573,0 -0.986061,0.247086 -0.368529,0.247085 -0.368529,0.78079 0,0.454637 0.338647,0.741257 0.338648,0.276735 0.816739,0.444753 0.48805,0.168019 0.966141,0.385454 0.47809,0.217436 0.816737,0.701723 0.338648,0.474404 0.338648,1.215661 0,1.027876 -0.597613,1.551697 -0.597613,0.523822 -1.583675,0.523822 -0.886459,0 -1.503993,-0.375571 -0.607573,-0.375569 -0.607573,-0.741256 z"
           style="stroke-width:0.270379" />
        <circle
           r="1.1644595"
           cy="9.0112219"
           cx="28.787254"
           id="path50-6-1-5-5-6-7-7"
           style="fill:#000000;fill-opacity:1;fill-rule:evenodd;stroke-width:0.162111" />
        <rect
           y="5.783474"
           x="28.423744"
           height="2.4597559"
           width="0.751297"
           id="rect877-43-5-9-9-49-3-5"
           style="fill:#000000;fill-opacity:1;stroke-width:0.162111" />
        <path
           id="path899-0-5-2-4-9-6-2"
           d="m 29.467189,10.005333 0.869926,0.898422 1.924386,0.305289 0.764487,-0.03489 v 0 l -0.105444,0.06978 h -0.171352"
           style="fill:none;stroke:#000000;stroke-width:0.162111px;stroke-linecap:butt;stroke-linejoin:miter;stroke-opacity:1" />
        <ellipse
           ry="0.62705475"
           rx="0.62323153"
           cy="10.98129"
           cx="33.583313"
           id="path901-3-4-2-6-08-4-4"
           style="fill:#000000;fill-opacity:1;stroke-width:0.162111" />
      </g>
      <g
         id="g1838-8-9-9-7-5"
         transform="matrix(1.842278,0,0,1.842278,-2006.9107,954.99942)"
         style="stroke-width:0.590563">
        <text
           xml:space="preserve"
           style="font-style:normal;font-variant:normal;font-weight:normal;font-stretch:normal;font-size:8.46667px;line-height:1.25;font-family:Dosis;-inkscape-font-specification:Dosis;fill:#ffffff;fill-opacity:1;stroke-width:0.156253"
           x="1168.3744"
           y="-500.51633"
           id="text3119-7-7-9-8-4-9-2-31-9-0"><tspan
             sodipodi:role="line"
             id="tspan3117-8-2-03-9-4-7-2-48-7-5"
             x="1168.3744"
             y="-500.51633"
             style="font-style:normal;font-variant:normal;font-weight:normal;font-stretch:normal;font-size:8.46667px;font-family:Dosis;-inkscape-font-specification:Dosis;fill:#ffffff;fill-opacity:1;stroke-width:0.156253">JOIN US!</tspan></text>
        <text
           xml:space="preserve"
           style="font-style:normal;font-variant:normal;font-weight:normal;font-stretch:normal;font-size:8.46667px;line-height:1.25;font-family:Dosis;-inkscape-font-specification:Dosis;fill:#e0e0e0;fill-opacity:1;stroke-width:0.156253"
           x="1129.1139"
           y="-500.5629"
           id="text3119-7-7-1-32-6-6-3-4-9-2-7"><tspan
             sodipodi:role="line"
             id="tspan3117-8-2-0-6-4-3-6-7-6-2-3"
             x="1129.1139"
             y="-500.5629"
             style="font-style:normal;font-variant:normal;font-weight:normal;font-stretch:normal;font-size:8.46667px;font-family:Dosis;-inkscape-font-specification:Dosis;fill:#e0e0e0;fill-opacity:1;stroke-width:0.156253">SeaGL 2021</tspan></text>
      </g>
      <text
         xml:space="preserve"
         style="font-style:normal;font-weight:normal;font-size:9.04757px;line-height:1.25;font-family:sans-serif;fill:#ffffff;fill-opacity:1;stroke:none;stroke-width:0.290194"
         x="196.7023"
         y="51.636738"
         id="text1575-7-77-1-2"><tspan
           sodipodi:role="line"
           id="tspan1573-5-3-6-7"
           x="196.7023"
           y="51.636738"
           style="font-style:normal;font-variant:normal;font-weight:normal;font-stretch:normal;font-family:Lato;-inkscape-font-specification:Lato;text-align:end;text-anchor:end;fill:#ffffff;stroke-width:0.290194">Seattle GNU/Linux Conference</tspan><tspan
           sodipodi:role="line"
           x="196.7023"
           y="63.355461"
           style="font-style:normal;font-variant:normal;font-weight:normal;font-stretch:normal;font-family:Lato;-inkscape-font-specification:Lato;text-align:end;text-anchor:end;fill:#ffffff;stroke-width:0.290194"
           id="tspan1577-4-71-3-2">returns for the ninth year!</tspan></text>
      <g
         id="g20421">
        <text
           xml:space="preserve"
           id="text10968"
           style="font-style:normal;font-weight:normal;font-size:7.05556px;line-height:1.25;font-family:sans-serif;white-space:pre;shape-inside:url(#rect10970);fill:#ffffff;fill-opacity:1;stroke:none"
           x="85.27076"
           y="0"
           transform="matrix(1.0202016,0,0,1.0202016,2765.9578,-5438.5048)"><tspan
             x="-2686.6723"
             y="5426.2414"
             id="tspan20939"><tspan
               style="font-family:Lato;-inkscape-font-specification:Lato;text-align:center;text-anchor:middle"
               id="tspan20937">We’re an annual community-focused free/libre/open </tspan></tspan><tspan
             x="-2690.932"
             y="5435.38"
             id="tspan20943"><tspan
               style="font-family:Lato;-inkscape-font-specification:Lato;text-align:center;text-anchor:middle"
               id="tspan20941">source software, hardware, and culture event in Seattle, </tspan></tspan><tspan
             x="-2687.2155"
             y="5444.5187"
             id="tspan20951"><tspan
               style="font-family:Lato;-inkscape-font-specification:Lato;text-align:center;text-anchor:middle"
               id="tspan20945">and since last year, </tspan><tspan
               style="font-style:italic;font-family:Lato;-inkscape-font-specification:'Lato Italic'"
               id="tspan20947">virtually</tspan><tspan
               style="font-family:Lato;-inkscape-font-specification:Lato;text-align:center;text-anchor:middle"
               id="tspan20949"> all over the world! Join us </tspan></tspan><tspan
             x="-2655.9277"
             y="5453.6574"
             id="tspan20955"><tspan
               style="font-family:Lato;-inkscape-font-specification:Lato;text-align:center;text-anchor:middle"
               id="tspan20953">for free, no registration required!</tspan></tspan></text>
        <text
           xml:space="preserve"
           id="text10978"
           style="font-style:normal;font-variant:normal;font-weight:normal;font-stretch:normal;font-size:7.05556px;line-height:1.25;font-family:Lato;-inkscape-font-specification:Lato;white-space:pre;shape-inside:url(#rect10980);fill:#ffffff;fill-opacity:1;stroke:none"
           x="169.7397"
           y="0"
           transform="matrix(1.0202016,0,0,1.0202016,2765.8246,-5394.7239)"><tspan
             x="-2689.9248"
             y="5426.2414"
             id="tspan20959"><tspan
               style="text-align:center;text-anchor:middle"
               id="tspan20957">This year will feature dozens of presentations including </tspan></tspan><tspan
             x="-2680.5428"
             y="5435.0607"
             id="tspan20969"><tspan
               style="text-align:center;text-anchor:middle"
               id="tspan20961">our keynotes: </tspan><tspan
               style="font-weight:bold"
               id="tspan20963">Marie Nordin</tspan><tspan
               style="text-align:center;text-anchor:middle"
               id="tspan20965">, </tspan><tspan
               style="font-weight:bold"
               id="tspan20967">Christine &amp; Morgan </tspan></tspan><tspan
             x="-2691.0679"
             y="5443.88"
             id="tspan20983"><tspan
               style="font-weight:bold"
               id="tspan20971">Lemmer-Webber</tspan><tspan
               style="text-align:center;text-anchor:middle"
               id="tspan20973">, </tspan><tspan
               style="font-weight:bold"
               id="tspan20975">Elana Hashman</tspan><tspan
               style="text-align:center;text-anchor:middle"
               id="tspan20977">, and </tspan><tspan
               style="font-weight:bold"
               id="tspan20979">Cory Doctorow</tspan><tspan
               style="text-align:center;text-anchor:middle"
               id="tspan20981">! </tspan></tspan><tspan
             x="-2686.9086"
             y="5452.6994"
             id="tspan20991"><tspan
               style="text-align:center;text-anchor:middle"
               id="tspan20985">Also many community connections, the </tspan><tspan
               style="font-weight:bold"
               id="tspan20987">Career Expo</tspan><tspan
               style="text-align:center;text-anchor:middle"
               id="tspan20989">, </tspan></tspan><tspan
             x="-2683.7954"
             y="5461.5187"
             id="tspan20999"><tspan
               style="text-align:center;text-anchor:middle"
               id="tspan20993">and our shipped tea swap with virtual </tspan><tspan
               style="font-weight:bold"
               id="tspan20995">TeaGL</tspan><tspan
               style="text-align:center;text-anchor:middle"
               id="tspan20997"> party!</tspan></tspan></text>
        <text
           xml:space="preserve"
           id="text10984"
           style="font-style:normal;font-weight:normal;font-size:7.05556px;line-height:1.25;font-family:sans-serif;white-space:pre;shape-inside:url(#rect10986);fill:#ffffff;fill-opacity:1;stroke:none"
           x="85.27076"
           y="0"
           transform="matrix(1.0202016,0,0,1.0202016,2765.747,-5343.002)"><tspan
             x="-2690.0623"
             y="5426.2414"
             id="tspan21003"><tspan
               style="font-family:Lato;-inkscape-font-specification:Lato;text-align:center;text-anchor:middle"
               id="tspan21001">Interested in helping make SeaGL happen? Lend a wing </tspan></tspan><tspan
             x="-2690.4168"
             y="5435.38"
             id="tspan21011"><tspan
               style="font-family:Lato;-inkscape-font-specification:Lato;text-align:center;text-anchor:middle"
               id="tspan21005">to our </tspan><tspan
               style="font-style:italic;font-family:Lato;-inkscape-font-specification:'Lato Italic'"
               id="tspan21007">all volunteer eﬀort</tspan><tspan
               style="font-family:Lato;-inkscape-font-specification:Lato;text-align:center;text-anchor:middle"
               id="tspan21009">! Connected to a company who </tspan></tspan><tspan
             x="-2685.4691"
             y="5444.5187"
             id="tspan21019"><tspan
               style="font-family:Lato;-inkscape-font-specification:Lato;text-align:center;text-anchor:middle"
               id="tspan21013">wants to sponsor? Contributions will have a </tspan><tspan
               style="font-style:italic;font-family:Lato;-inkscape-font-specification:'Lato Italic'"
               id="tspan21015">real and</tspan><tspan
               style="font-style:italic"
               id="tspan21017"> </tspan></tspan><tspan
             x="-2667.2711"
             y="5453.6574"
             id="tspan21025"><tspan
               style="font-style:italic;font-family:Lato;-inkscape-font-specification:'Lato Italic'"
               id="tspan21021">lasting impact</tspan><tspan
               style="font-family:Lato;-inkscape-font-specification:Lato;text-align:center;text-anchor:middle"
               id="tspan21023"> on the FLOSS community!</tspan></tspan></text>
      </g>
    </g>
    <text
       xml:space="preserve"
       style="font-style:normal;font-weight:normal;font-size:8.2778px;line-height:1.25;font-family:sans-serif;text-align:start;text-anchor:start;fill:#fcb320;fill-opacity:1;stroke:none;stroke-width:0.269928"
       x="19.977016"
       y="254.96571"
       id="text1575-2-8-2-9"><tspan
         sodipodi:role="line"
         x="19.977016"
         y="254.96571"
         style="font-style:normal;font-variant:normal;font-weight:normal;font-stretch:normal;font-size:8.2778px;font-family:Lato;-inkscape-font-specification:Lato;text-align:start;text-anchor:start;fill:#fcb320;fill-opacity:1;stroke-width:0.269928"
         id="tspan1577-3-1-2-5">November 5th &amp; 6th, 2021</tspan><tspan
         sodipodi:role="line"
         x="19.977016"
         y="265.68741"
         style="font-style:normal;font-variant:normal;font-weight:normal;font-stretch:normal;font-size:8.2778px;font-family:Lato;-inkscape-font-specification:Lato;text-align:start;text-anchor:start;fill:#fcb320;fill-opacity:1;stroke-width:0.269928"
         id="tspan1615-2-1-7">Virtual Conference</tspan></text>
    <g
       style="shape-rendering:crispEdges"
       id="g1065"
       transform="matrix(0.12487031,0,0,0.12487031,163.40145,248.72981)">
      <rect
         x="0"
         y="0"
         width="264"
         height="264"
         fill="#ffffff"
         id="rect1051" />
      <path
         fill="#000000"
         d="m 32,32 h 8 v 8 h -8 v -8 m 8,0 h 8 v 8 h -8 v -8 m 8,0 h 8 v 8 h -8 v -8 m 8,0 h 8 v 8 h -8 v -8 m 8,0 h 8 v 8 h -8 v -8 m 8,0 h 8 v 8 h -8 v -8 m 8,0 h 8 v 8 h -8 v -8 m 16,0 h 8 v 8 h -8 v -8 m 8,0 h 8 v 8 h -8 v -8 m 8,0 h 8 v 8 h -8 v -8 m 16,0 h 8 v 8 h -8 v -8 m 16,0 h 8 v 8 h -8 v -8 m 8,0 h 8 v 8 h -8 v -8 m 24,0 h 8 v 8 h -8 v -8 m 8,0 h 8 v 8 h -8 v -8 m 8,0 h 8 v 8 h -8 v -8 m 8,0 h 8 v 8 h -8 v -8 m 8,0 h 8 v 8 h -8 v -8 m 8,0 h 8 v 8 h -8 v -8 m 8,0 h 8 v 8 h -8 V 32 M 32,40 h 8 v 8 h -8 v -8 m 48,0 h 8 v 8 h -8 v -8 m 80,0 h 8 v 8 h -8 v -8 m 16,0 h 8 v 8 h -8 v -8 m 48,0 h 8 v 8 h -8 V 40 M 32,48 h 8 v 8 h -8 v -8 m 16,0 h 8 v 8 h -8 v -8 m 8,0 h 8 v 8 h -8 v -8 m 8,0 h 8 v 8 h -8 v -8 m 16,0 h 8 v 8 h -8 v -8 m 24,0 h 8 v 8 h -8 v -8 m 16,0 h 8 v 8 h -8 v -8 m 24,0 h 8 v 8 h -8 v -8 m 32,0 h 8 v 8 h -8 v -8 m 16,0 h 8 v 8 h -8 v -8 m 8,0 h 8 v 8 h -8 v -8 m 8,0 h 8 v 8 h -8 v -8 m 16,0 h 8 v 8 h -8 V 48 M 32,56 h 8 v 8 h -8 v -8 m 16,0 h 8 v 8 h -8 v -8 m 8,0 h 8 v 8 h -8 v -8 m 8,0 h 8 v 8 h -8 v -8 m 16,0 h 8 v 8 h -8 v -8 m 16,0 h 8 v 8 h -8 v -8 m 8,0 h 8 v 8 h -8 v -8 m 48,0 h 8 v 8 h -8 v -8 m 8,0 h 8 v 8 h -8 v -8 m 16,0 h 8 v 8 h -8 v -8 m 16,0 h 8 v 8 h -8 v -8 m 8,0 h 8 v 8 h -8 v -8 m 8,0 h 8 v 8 h -8 v -8 m 16,0 h 8 v 8 h -8 V 56 M 32,64 h 8 v 8 h -8 v -8 m 16,0 h 8 v 8 h -8 v -8 m 8,0 h 8 v 8 h -8 v -8 m 8,0 h 8 v 8 h -8 v -8 m 16,0 h 8 v 8 h -8 v -8 m 16,0 h 8 v 8 h -8 v -8 m 8,0 h 8 v 8 h -8 v -8 m 8,0 h 8 v 8 h -8 v -8 m 8,0 h 8 v 8 h -8 v -8 m 8,0 h 8 v 8 h -8 v -8 m 16,0 h 8 v 8 h -8 v -8 m 8,0 h 8 v 8 h -8 v -8 m 8,0 h 8 v 8 h -8 v -8 m 16,0 h 8 v 8 h -8 v -8 m 16,0 h 8 v 8 h -8 v -8 m 8,0 h 8 v 8 h -8 v -8 m 8,0 h 8 v 8 h -8 v -8 m 16,0 h 8 v 8 h -8 V 64 M 32,72 h 8 v 8 h -8 v -8 m 48,0 h 8 v 8 h -8 v -8 m 16,0 h 8 v 8 h -8 v -8 m 8,0 h 8 v 8 h -8 v -8 m 24,0 h 8 v 8 h -8 v -8 m 48,0 h 8 v 8 h -8 v -8 m 48,0 h 8 v 8 h -8 V 72 M 32,80 h 8 v 8 h -8 v -8 m 8,0 h 8 v 8 h -8 v -8 m 8,0 h 8 v 8 h -8 v -8 m 8,0 h 8 v 8 h -8 v -8 m 8,0 h 8 v 8 h -8 v -8 m 8,0 h 8 v 8 h -8 v -8 m 8,0 h 8 v 8 h -8 v -8 m 16,0 h 8 v 8 h -8 v -8 m 16,0 h 8 v 8 h -8 v -8 m 16,0 h 8 v 8 h -8 v -8 m 16,0 h 8 v 8 h -8 v -8 m 16,0 h 8 v 8 h -8 v -8 m 16,0 h 8 v 8 h -8 v -8 m 8,0 h 8 v 8 h -8 v -8 m 8,0 h 8 v 8 h -8 v -8 m 8,0 h 8 v 8 h -8 v -8 m 8,0 h 8 v 8 h -8 v -8 m 8,0 h 8 v 8 h -8 v -8 m 8,0 h 8 v 8 h -8 V 80 M 96,88 h 8 v 8 h -8 v -8 m 8,0 h 8 v 8 h -8 v -8 m 16,0 h 8 v 8 h -8 v -8 m 8,0 h 8 v 8 h -8 v -8 m 8,0 h 8 v 8 h -8 v -8 m 24,0 h 8 v 8 h -8 V 88 M 32,96 h 8 v 8 h -8 v -8 m 32,0 h 8 v 8 h -8 v -8 m 16,0 h 8 v 8 h -8 v -8 m 8,0 h 8 v 8 h -8 v -8 m 8,0 h 8 v 8 h -8 v -8 m 8,0 h 8 v 8 h -8 v -8 m 16,0 h 8 v 8 h -8 v -8 m 16,0 h 8 v 8 h -8 v -8 m 24,0 h 8 v 8 h -8 v -8 m 8,0 h 8 v 8 h -8 v -8 m 8,0 h 8 v 8 h -8 v -8 m 8,0 h 8 v 8 h -8 v -8 m 8,0 h 8 v 8 h -8 v -8 m 8,0 h 8 v 8 h -8 v -8 m 24,0 h 8 v 8 h -8 v -8 m -192,8 h 8 v 8 h -8 v -8 m 8,0 h 8 v 8 h -8 v -8 m 8,0 h 8 v 8 h -8 v -8 m 8,0 h 8 v 8 h -8 v -8 m 16,0 h 8 v 8 h -8 v -8 m 16,0 h 8 v 8 h -8 v -8 m 8,0 h 8 v 8 h -8 v -8 m 40,0 h 8 v 8 h -8 v -8 m 8,0 h 8 v 8 h -8 v -8 m 8,0 h 8 v 8 h -8 v -8 m 8,0 h 8 v 8 h -8 v -8 m 32,0 h 8 v 8 h -8 v -8 m 8,0 h 8 v 8 h -8 v -8 m 16,0 h 8 v 8 h -8 v -8 m -184,8 h 8 v 8 h -8 v -8 m 8,0 h 8 v 8 h -8 v -8 m 16,0 h 8 v 8 h -8 v -8 m 16,0 h 8 v 8 h -8 v -8 m 8,0 h 8 v 8 h -8 v -8 m 24,0 h 8 v 8 h -8 v -8 m 16,0 h 8 v 8 h -8 v -8 m 32,0 h 8 v 8 h -8 v -8 m 32,0 h 8 v 8 h -8 v -8 m 8,0 h 8 v 8 h -8 v -8 m 8,0 h 8 v 8 h -8 v -8 m 8,0 h 8 v 8 h -8 v -8 m -176,8 h 8 v 8 h -8 v -8 m 8,0 h 8 v 8 h -8 v -8 m 16,0 h 8 v 8 h -8 v -8 m 8,0 h 8 v 8 h -8 v -8 m 8,0 h 8 v 8 h -8 v -8 m 40,0 h 8 v 8 h -8 v -8 m 8,0 h 8 v 8 h -8 v -8 m 8,0 h 8 v 8 h -8 v -8 m 16,0 h 8 v 8 h -8 v -8 m 64,0 h 8 v 8 h -8 v -8 m 8,0 h 8 v 8 h -8 v -8 m -176,8 h 8 v 8 h -8 v -8 m 8,0 h 8 v 8 h -8 v -8 m 8,0 h 8 v 8 h -8 v -8 m 8,0 h 8 v 8 h -8 v -8 m 16,0 h 8 v 8 h -8 v -8 m 8,0 h 8 v 8 h -8 v -8 m 8,0 h 8 v 8 h -8 v -8 m 8,0 h 8 v 8 h -8 v -8 m 16,0 h 8 v 8 h -8 v -8 m 16,0 h 8 v 8 h -8 v -8 m 8,0 h 8 v 8 h -8 v -8 m 8,0 h 8 v 8 h -8 v -8 m 16,0 h 8 v 8 h -8 v -8 m 8,0 h 8 v 8 h -8 v -8 m 24,0 h 8 v 8 h -8 v -8 m 8,0 h 8 v 8 h -8 v -8 m 8,0 h 8 v 8 h -8 v -8 m 8,0 h 8 v 8 h -8 v -8 m -192,8 h 8 v 8 h -8 v -8 m 8,0 h 8 v 8 h -8 v -8 m 8,0 h 8 v 8 h -8 v -8 m 8,0 h 8 v 8 h -8 v -8 m 8,0 h 8 v 8 h -8 v -8 m 8,0 h 8 v 8 h -8 v -8 m 24,0 h 8 v 8 h -8 v -8 m 32,0 h 8 v 8 h -8 v -8 m 24,0 h 8 v 8 h -8 v -8 m 8,0 h 8 v 8 h -8 v -8 m 32,0 h 8 v 8 h -8 v -8 m 24,0 h 8 v 8 h -8 v -8 m -168,8 h 8 v 8 h -8 v -8 m 8,0 h 8 v 8 h -8 v -8 m 24,0 h 8 v 8 h -8 v -8 m 24,0 h 8 v 8 h -8 v -8 m 16,0 h 8 v 8 h -8 v -8 m 8,0 h 8 v 8 h -8 v -8 m 8,0 h 8 v 8 h -8 v -8 m 8,0 h 8 v 8 h -8 v -8 m 8,0 h 8 v 8 h -8 v -8 m 8,0 h 8 v 8 h -8 v -8 m 8,0 h 8 v 8 h -8 v -8 m 16,0 h 8 v 8 h -8 v -8 m 8,0 h 8 v 8 h -8 v -8 m 8,0 h 8 v 8 h -8 v -8 m 8,0 h 8 v 8 h -8 v -8 m -160,8 h 8 v 8 h -8 v -8 m 24,0 h 8 v 8 h -8 v -8 m 16,0 h 8 v 8 h -8 v -8 m 16,0 h 8 v 8 h -8 v -8 m 8,0 h 8 v 8 h -8 v -8 m 8,0 h 8 v 8 h -8 v -8 m 16,0 h 8 v 8 h -8 v -8 m 48,0 h 8 v 8 h -8 v -8 m 8,0 h 8 v 8 h -8 v -8 m 16,0 h 8 v 8 h -8 v -8 m 8,0 h 8 v 8 h -8 v -8 m -184,8 h 8 v 8 h -8 v -8 m 8,0 h 8 v 8 h -8 v -8 m 8,0 h 8 v 8 h -8 v -8 m 16,0 h 8 v 8 h -8 v -8 m 16,0 h 8 v 8 h -8 v -8 m 8,0 h 8 v 8 h -8 v -8 m 8,0 h 8 v 8 h -8 v -8 m 8,0 h 8 v 8 h -8 v -8 m 24,0 h 8 v 8 h -8 v -8 m 8,0 h 8 v 8 h -8 v -8 m 16,0 h 8 v 8 h -8 v -8 m 8,0 h 8 v 8 h -8 v -8 m 8,0 h 8 v 8 h -8 v -8 m 8,0 h 8 v 8 h -8 v -8 m 8,0 h 8 v 8 h -8 v -8 m 8,0 h 8 v 8 h -8 v -8 m 8,0 h 8 v 8 h -8 v -8 m 8,0 h 8 v 8 h -8 v -8 m -112,8 h 8 v 8 h -8 v -8 m 8,0 h 8 v 8 h -8 v -8 m 32,0 h 8 v 8 h -8 v -8 m 8,0 h 8 v 8 h -8 v -8 m 16,0 h 8 v 8 h -8 v -8 m 32,0 h 8 v 8 h -8 v -8 m -160,8 h 8 v 8 h -8 v -8 m 8,0 h 8 v 8 h -8 v -8 m 8,0 h 8 v 8 h -8 v -8 m 8,0 h 8 v 8 h -8 v -8 m 8,0 h 8 v 8 h -8 v -8 m 8,0 h 8 v 8 h -8 v -8 m 8,0 h 8 v 8 h -8 v -8 m 16,0 h 8 v 8 h -8 v -8 m 64,0 h 8 v 8 h -8 v -8 m 16,0 h 8 v 8 h -8 v -8 m 16,0 h 8 v 8 h -8 v -8 m -160,8 h 8 v 8 h -8 v -8 m 48,0 h 8 v 8 h -8 v -8 m 24,0 h 8 v 8 h -8 v -8 m 24,0 h 8 v 8 h -8 v -8 m 16,0 h 8 v 8 h -8 v -8 m 8,0 h 8 v 8 h -8 v -8 m 8,0 h 8 v 8 h -8 v -8 m 32,0 h 8 v 8 h -8 v -8 m 8,0 h 8 v 8 h -8 v -8 m 8,0 h 8 v 8 h -8 v -8 m 8,0 h 8 v 8 h -8 v -8 m 8,0 h 8 v 8 h -8 v -8 m -192,8 h 8 v 8 h -8 v -8 m 16,0 h 8 v 8 h -8 v -8 m 8,0 h 8 v 8 h -8 v -8 m 8,0 h 8 v 8 h -8 v -8 m 16,0 h 8 v 8 h -8 v -8 m 16,0 h 8 v 8 h -8 v -8 m 16,0 h 8 v 8 h -8 v -8 m 8,0 h 8 v 8 h -8 v -8 m 16,0 h 8 v 8 h -8 v -8 m 8,0 h 8 v 8 h -8 v -8 m 16,0 h 8 v 8 h -8 v -8 m 8,0 h 8 v 8 h -8 v -8 m 8,0 h 8 v 8 h -8 v -8 m 8,0 h 8 v 8 h -8 v -8 m 8,0 h 8 v 8 h -8 v -8 m 8,0 h 8 v 8 h -8 v -8 m 8,0 h 8 v 8 h -8 v -8 m 16,0 h 8 v 8 h -8 v -8 m -192,8 h 8 v 8 h -8 v -8 m 16,0 h 8 v 8 h -8 v -8 m 8,0 h 8 v 8 h -8 v -8 m 8,0 h 8 v 8 h -8 v -8 m 16,0 h 8 v 8 h -8 v -8 m 24,0 h 8 v 8 h -8 v -8 m 24,0 h 8 v 8 h -8 v -8 m 40,0 h 8 v 8 h -8 v -8 m 8,0 h 8 v 8 h -8 v -8 m 8,0 h 8 v 8 h -8 v -8 m 24,0 h 8 v 8 h -8 v -8 m 8,0 h 8 v 8 h -8 v -8 m 8,0 h 8 v 8 h -8 v -8 m -192,8 h 8 v 8 h -8 v -8 m 16,0 h 8 v 8 h -8 v -8 m 8,0 h 8 v 8 h -8 v -8 m 8,0 h 8 v 8 h -8 v -8 m 16,0 h 8 v 8 h -8 v -8 m 32,0 h 8 v 8 h -8 v -8 m 8,0 h 8 v 8 h -8 v -8 m 8,0 h 8 v 8 h -8 v -8 m 8,0 h 8 v 8 h -8 v -8 m 8,0 h 8 v 8 h -8 v -8 m 24,0 h 8 v 8 h -8 v -8 m 8,0 h 8 v 8 h -8 v -8 m 24,0 h 8 v 8 h -8 v -8 m 16,0 h 8 v 8 h -8 v -8 m -184,8 h 8 v 8 h -8 v -8 m 48,0 h 8 v 8 h -8 v -8 m 24,0 h 8 v 8 h -8 v -8 m 16,0 h 8 v 8 h -8 v -8 m 16,0 h 8 v 8 h -8 v -8 m 16,0 h 8 v 8 h -8 v -8 m 32,0 h 8 v 8 h -8 v -8 m 8,0 h 8 v 8 h -8 v -8 m 8,0 h 8 v 8 h -8 v -8 m 8,0 h 8 v 8 h -8 v -8 m 8,0 h 8 v 8 h -8 v -8 m -184,8 h 8 v 8 h -8 v -8 m 8,0 h 8 v 8 h -8 v -8 m 8,0 h 8 v 8 h -8 v -8 m 8,0 h 8 v 8 h -8 v -8 m 8,0 h 8 v 8 h -8 v -8 m 8,0 h 8 v 8 h -8 v -8 m 8,0 h 8 v 8 h -8 v -8 m 16,0 h 8 v 8 h -8 v -8 m 32,0 h 8 v 8 h -8 v -8 m 8,0 h 8 v 8 h -8 v -8 m 16,0 h 8 v 8 h -8 v -8 m 16,0 h 8 v 8 h -8 v -8 m 40,0 h 8 v 8 h -8 v -8 m 8,0 h 8 v 8 h -8 v -8 m 8,0 h 8 v 8 h -8 v -8"
         id="path1053" />
    </g>
  </g>
</svg>
