<?xml version="1.0" encoding="UTF-8" standalone="no"?>
<!-- Created with Inkscape (http://www.inkscape.org/) -->

<svg
   inkscape:version="1.1 (c68e22c387, 2021-05-23)"
   sodipodi:docname="seagl_2021_handbill_A.svg"
   id="svg5"
   version="1.1"
   viewBox="0 0 113.03 170.18"
   height="6.6999998in"
   width="4.4499998in"
   xmlns:inkscape="http://www.inkscape.org/namespaces/inkscape"
   xmlns:sodipodi="http://sodipodi.sourceforge.net/DTD/sodipodi-0.dtd"
   xmlns:xlink="http://www.w3.org/1999/xlink"
   xmlns="http://www.w3.org/2000/svg"
   xmlns:svg="http://www.w3.org/2000/svg">
  <sodipodi:namedview
     id="namedview7"
     pagecolor="#ffffff"
     bordercolor="#666666"
     borderopacity="1.0"
     inkscape:pageshadow="2"
     inkscape:pageopacity="0.0"
     inkscape:pagecheckerboard="0"
     inkscape:document-units="mm"
     showgrid="false"
     units="in"
     inkscape:zoom="2.8284272"
     inkscape:cx="206.2984"
     inkscape:cy="364.15998"
     inkscape:window-width="1920"
     inkscape:window-height="1011"
     inkscape:window-x="0"
     inkscape:window-y="0"
     inkscape:window-maximized="1"
     inkscape:current-layer="layer1"
     showguides="false"
     inkscape:guide-bbox="true"
     lock-margins="true"
     fit-margin-top="0.1"
     fit-margin-left="0.1"
     fit-margin-right="0.1"
     fit-margin-bottom="0.1">
    <sodipodi:guide
       position="2.5400002,2.5399953"
       orientation="165.1,0"
       id="guide134026" />
    <sodipodi:guide
       position="56.515003,2.5399953"
       orientation="165.1,0"
       id="guide134028" />
    <sodipodi:guide
       position="110.49001,2.5399953"
       orientation="165.1,0"
       id="guide134030" />
    <sodipodi:guide
       position="2.5400002,2.5399953"
       orientation="0,107.95"
       id="guide134032" />
    <sodipodi:guide
       position="2.5400002,167.64001"
       orientation="0,107.95"
       id="guide134034" />
    <sodipodi:guide
       position="110.49001,161.29"
       orientation="0,-1"
       id="guide134431" />
    <sodipodi:guide
       position="2.5400032,153.67"
       orientation="0,-1"
       id="guide134435" />
    <sodipodi:guide
       position="69.258757,126.07431"
       orientation="0,-1"
       id="guide134692" />
    <sodipodi:guide
       position="104.14,2.5399892"
       orientation="1,0"
       id="guide186771" />
    <sodipodi:guide
       position="8.8900004,2.5399892"
       orientation="1,0"
       id="guide186773" />
    <sodipodi:guide
       position="2.5400002,8.8899957"
       orientation="0,-1"
       id="guide186775" />
    <sodipodi:guide
       position="110.49001,15.240002"
       orientation="0,-1"
       id="guide186777" />
    <sodipodi:guide
       position="104.14,31.080137"
       orientation="0,-1"
       id="guide186779" />
    <sodipodi:guide
       position="2.5400051,38.700132"
       orientation="0,-1"
       id="guide284805" />
    <sodipodi:guide
       position="0,0"
       orientation="170.18,0"
       id="guide2145" />
    <sodipodi:guide
       position="113.03,0"
       orientation="170.18,0"
       id="guide2147" />
    <sodipodi:guide
       position="0,0"
       orientation="0,113.03"
       id="guide2149" />
    <sodipodi:guide
       position="0,170.18"
       orientation="0,113.03"
       id="guide2151" />
  </sodipodi:namedview>
  <defs
     id="defs2">
    <color-profile
       name="Blue"
       xlink:href="file:///app/share/color/icc/colord/Bluish.icc"
       id="color-profile61076" />
    <rect
       x="-2692.0627"
       y="5419.6797"
       width="173.235"
       height="40.3661"
       id="rect10970" />
    <rect
       x="-2692.0627"
       y="5419.6797"
       width="173.235"
       height="40.3661"
       id="rect16217" />
    <rect
       x="-2692.0627"
       y="5419.6797"
       width="173.23502"
       height="49.29884"
       id="rect10980" />
    <rect
       x="-2692.0627"
       y="5419.6797"
       width="173.23502"
       height="49.29884"
       id="rect16220" />
    <rect
       x="-2692.0627"
       y="5419.6797"
       width="173.2381"
       height="50.860573"
       id="rect10986" />
    <rect
       x="-2692.0627"
       y="5419.6797"
       width="173.2381"
       height="50.860573"
       id="rect16223" />
    <rect
       x="-2692.0627"
       y="5419.6797"
       width="173.235"
       height="40.3661"
       id="rect10970-1" />
    <rect
       x="-2692.0627"
       y="5419.6797"
       width="173.23502"
       height="49.29884"
       id="rect10980-9" />
    <rect
       x="-2692.0627"
       y="5419.6797"
       width="173.2381"
       height="50.860573"
       id="rect10986-4" />
    <rect
       x="-2692.0627"
       y="5419.6797"
       width="173.235"
       height="40.3661"
       id="rect10970-1-8" />
    <rect
       x="-2692.0627"
       y="5419.6797"
       width="173.23502"
       height="49.29884"
       id="rect10980-9-8" />
    <rect
       x="-2692.0627"
       y="5419.6797"
       width="173.2381"
       height="50.860573"
       id="rect10986-4-4" />
    <rect
       x="-2692.0627"
       y="5419.6797"
       width="173.235"
       height="40.3661"
       id="rect10970-2" />
    <rect
       x="-2692.0627"
       y="5419.6797"
       width="173.23502"
       height="49.29884"
       id="rect10980-6" />
    <rect
       x="-2692.0627"
       y="5419.6797"
       width="173.2381"
       height="50.860573"
       id="rect10986-6" />
    <rect
       x="-2692.0627"
       y="5419.6797"
       width="173.235"
       height="40.3661"
       id="rect10970-2-3" />
    <rect
       x="-2692.0627"
       y="5419.6797"
       width="173.38503"
       height="55.792843"
       id="rect10980-6-9" />
    <rect
       x="-2692.0627"
       y="5419.6797"
       width="173.235"
       height="40.3661"
       id="rect10970-1-8-1" />
    <rect
       x="-2692.0627"
       y="5419.6797"
       width="173.23502"
       height="49.29884"
       id="rect10980-9-8-2" />
    <rect
       x="-2692.0627"
       y="5419.6797"
       width="173.2381"
       height="50.860573"
       id="rect10986-4-4-9" />
    <rect
       x="-2692.0627"
       y="5419.6797"
       width="173.235"
       height="40.3661"
       id="rect10970-2-3-3" />
    <rect
       x="-2692.0627"
       y="5419.6797"
       width="173.23502"
       height="49.29884"
       id="rect10980-6-9-9" />
    <rect
       x="-2692.0627"
       y="5419.6797"
       width="173.235"
       height="40.3661"
       id="rect10970-2-3-5" />
    <rect
       x="-2692.0627"
       y="5419.6797"
       width="173.23502"
       height="49.29884"
       id="rect10980-6-9-97" />
    <rect
       x="-2692.0627"
       y="5419.6797"
       width="173.23502"
       height="49.29884"
       id="rect205998" />
    <rect
       x="-2692.0627"
       y="5419.6797"
       width="172.1427"
       height="49.486778"
       id="rect10980-9-8-2-3" />
    <rect
       x="-2692.0627"
       y="5419.6797"
       width="173.235"
       height="40.3661"
       id="rect10970-2-3-36" />
    <rect
       x="-2692.0627"
       y="5419.6797"
       width="173.63924"
       height="28.679407"
       id="rect10980-6-9-7" />
    <rect
       x="-2692.0627"
       y="5419.6797"
       width="172.1427"
       height="49.486778"
       id="rect10980-9-8-2-3-5" />
    <rect
       x="-2692.0627"
       y="5419.6797"
       width="173.235"
       height="40.3661"
       id="rect10970-2-3-7" />
    <rect
       x="-2692.0627"
       y="5419.6797"
       width="173.38503"
       height="55.792843"
       id="rect10980-6-9-8" />
    <rect
       x="-2692.0627"
       y="5419.6797"
       width="173.235"
       height="40.3661"
       id="rect10970-2-3-9" />
    <rect
       x="-2692.0627"
       y="5419.6797"
       width="173.38503"
       height="55.792843"
       id="rect10980-6-9-2" />
  </defs>
  <g
     inkscape:label="Layer 1"
     inkscape:groupmode="layer"
     id="layer1"
     transform="translate(2.54,2.54)">
    <path
       id="rect1469-0"
       style="fill:#0c5a73;fill-opacity:1;stroke-width:0.868807"
       d="m 110.48999,-2.5399947 v 9.166316 C 109.54021,6.4983602 107.95,6.35 107.95,6.35 c 0,0 -53.975,-4.8019392 -107.95,7.62 0,0 -0.8807828,0.181824 -2.54,0.703417 V -2.5399947 Z"
       sodipodi:nodetypes="ccccccc" />
    <g
       id="g5256-75-1-9-8-6-2-7-6-3"
       transform="matrix(0.52353655,0,0,0.52353655,41.231248,13.861882)"
       style="stroke-width:0.612705">
      <circle
         id="circle2-3-2-1-6-98-1-9-7-6"
         r="22.699371"
         fill="#1d7193"
         cy="23.228592"
         cx="24.341667"
         style="stroke-width:0.270379" />
      <path
         id="path4-8-9-2-0-1-7-7-5-1"
         fill="#0c5a73"
         d="M 24.341667,19.226734 A 52.246084,52.246084 0 0 0 1.6851685,24.443987 22.699372,22.699372 0 0 0 24.341667,45.927948 22.699372,22.699372 0 0 0 46.979563,24.458456 52.246084,52.246084 0 0 0 24.341667,19.226734 Z"
         style="stroke-width:0.270379" />
      <circle
         id="circle6-8-3-7-4-33-5-6-3-0"
         stroke-width="0.648443"
         stroke="#000000"
         r="22.699371"
         fill="none"
         cy="23.228592"
         cx="24.341667" />
      <path
         id="path8-3-1-0-8-3-6-2-5-6"
         fill="#b1742a"
         d="M 28.542953,37.069976 27.479938,28.165079 H 26.05196 l 0.885844,10.106459 h 4.823962 l -1.087105,-0.822787 z"
         style="stroke-width:0.270379" />
      <path
         id="path10-1-9-9-8-7-5-7-6-3"
         fill="#ffffff"
         d="m 30.813106,5.7314332 c -2.130105,4.2e-5 -3.834162,1.4066739 -3.795633,3.5677409 0.01635,0.9180349 0.302244,1.6170649 0.794784,2.1130489 v 5.503024 L 25.548312,14.714348 9.1906537,30.341817 25.34419,29.568739 32.300871,24.345285 33.102374,22.058603 31.50402,20.504692 30.877185,18.719271 V 12.595097 C 32.493369,12.341155 34.941799,10.811548 35.178731,9.2723025 34.729709,8.0367814 32.945925,5.7313802 30.813106,5.7314332 Z"
         style="stroke-width:0.270379" />
      <path
         id="path12-8-4-3-8-98-4-1-2-2"
         fill="#e0e0e0"
         d="M 9.3080308,30.341778 H 25.508753 c 3.768129,-1.590781 7.738303,-4.826665 7.593478,-8.283047 -1.8344,2.703318 -3.649788,4.539875 -6.192304,5.754671 -5.348394,2.555428 -13.032563,1.717215 -17.6018962,2.528376 z M 35.172532,9.285738 c -0.649462,1.524471 -2.868848,3.064929 -4.576982,3.06493 -0.0803,0 -0.157824,-0.0039 -0.236162,-0.0067 V 19.3916 l 1.144632,1.11311 v -7.742163 c 1.611062,-0.487296 3.779616,-2.253981 3.779616,-3.463355 z"
         style="stroke-width:0.270379" />
      <path
         id="path14-96-7-6-9-6-2-5-9-0"
         fill="#b3b3b3"
         d="m 10.991011,30.041852 5.250879,-6.343862 5.250875,-3.097189 v 6.920616 l -10.501754,9.441051 z"
         style="stroke-width:0.270379" />
      <path
         id="path16-4-8-0-7-7-2-8-1-6"
         fill="#cccccc"
         d="m 10.991011,26.79518 10.501754,-9.44105 v 3.246671 l -10.501754,9.441051 z"
         style="stroke-width:0.270379" />
      <path
         id="path18-3-4-6-7-0-1-8-2-1"
         fill="#0d0d0d"
         d="m 6.7070842,25.069788 3.9697838,3.417363 H 8.2899334 l -3.3734376,3.372922 h 8.2826992 l 3.854545,-3.372922 h -5.871993 l 1.920813,-1.850017 -1.589567,-1.044897 z"
         style="stroke-width:0.270379" />
      <path
         id="path20-33-5-2-6-4-7-4-7-5"
         fill="#565656"
         d="m 6.7070842,25.069788 6.3954758,1.567346 1.627291,-1.567346 z"
         style="stroke-width:0.270379" />
      <path
         id="path22-8-0-6-4-8-2-5-0-5"
         fill="#b1742a"
         d="m 33.274028,9.539025 1.577559,0.841821 3.693483,-0.232305 1.452342,0.310452 0.538175,-0.623348 -6.117481,-0.642367 z"
         style="stroke-width:0.270379" />
      <path
         id="path24-6-3-1-3-48-4-6-9-4"
         fill="#fcb320"
         d="m 34.722108,8.373481 -1.44808,1.165544 7.399951,0.376101 -0.513374,-0.956968 -1.179439,-0.01376 z"
         style="stroke-width:0.270379" />
      <path
         id="path26-0-6-8-0-16-1-5-3-7"
         fill="#96412a"
         d="m 39.775045,10.010609 -0.835204,0.222313 0.989078,0.211434 z"
         style="stroke-width:0.270379" />
      <path
         id="path28-4-1-7-3-8-6-6-6-6"
         fill="#0d0d0d"
         d="m 32.199207,8.039788 c 0,0.244581 -0.197853,0.442437 -0.442821,0.442437 -0.243825,0 -0.866036,-0.442437 -0.866036,-0.442437 0,0 0.621827,-0.441325 0.866036,-0.441325 0.244968,-3.71e-4 0.442821,0.197855 0.442821,0.441325 z"
         style="stroke-width:0.270379" />
      <path
         id="path30-8-0-9-0-5-5-8-0-5"
         fill="#fcb320"
         d="m 24.215774,37.069976 0.708675,-8.904897 c 0,0 -0.180712,-0.418823 -0.809315,-0.418823 -0.628241,0 -0.618313,0.418823 -0.618313,0.418823 l -0.885855,10.106459 h 4.823622 l -1.087116,-0.822787 z"
         style="stroke-width:0.270379" />
      <path
         id="path32-8-6-2-9-2-7-4-6-6"
         d="m 5.5779542,38.292755 v 0.466638 3.044775 H 0 L 0.4650879,42.525054 3.574459,47.359383 0,52.916668 h 10.509953 v -2.174544 h 27.663428 v 2.174544 h 10.509954 l -3.574461,-5.557285 3.109373,-4.834329 0.465088,-0.720886 h -5.577954 v -3.511413 z"
         style="stroke-width:0.612705" />
      <path
         id="path34-8-3-0-2-1-8-8-2-9"
         fill="#cccccc"
         d="m 1.7146241,42.73998 2.9729452,4.619327 -2.9729452,4.619845 H 8.385018 L 5.5779542,50.740854 V 42.73998 Z m 45.2540859,0 -2.972945,4.619327 2.972945,4.619845 H 40.298316 L 43.10538,50.740854 V 42.73998 Z"
         style="stroke-width:0.270379" />
      <path
         id="path36-9-2-2-5-9-5-8-6-3"
         fill="#828282"
         d="m 7.9033938,50.740854 1.6706991,0.738015 v -0.738015 z m 32.8765462,0 -1.670699,0.738015 v -0.738015 z"
         style="stroke-width:0.270379" />
      <path
         id="path38-7-0-3-4-96-9-3-1-7"
         fill="#efefef"
         d="M 6.515625,39.228255 H 42.167969 V 49.804427 H 6.515625 Z"
         style="stroke-width:0.270379" />
      <path
         id="path40-7-6-7-0-0-2-8-8-4"
         fill="#0c5a73"
         d="m 32.272568,47.693606 v -6.424225 q 0,-0.197668 0.189243,-0.296502 0.189245,-0.09884 0.458171,-0.09884 0.268926,0 0.45817,0.09884 0.189244,0.09884 0.189244,0.296502 v 5.702736 h 2.430293 q 0.179284,0 0.278886,0.168017 0.109562,0.168019 0.109562,0.395337 0,0.227319 -0.109562,0.395337 -0.09961,0.168019 -0.278886,0.168019 H 32.8403 q -0.229084,0 -0.398408,-0.108718 -0.169324,-0.108718 -0.169324,-0.296503 z m -5.701759,-1.798783 v -2.757475 q 0,-1.166244 0.627494,-1.709832 0.637454,-0.553472 1.663357,-0.553472 1.055783,0 1.713157,0.513938 0.667335,0.513939 0.667335,1.38368 0,0.355802 -0.159364,0.484287 -0.149403,0.128485 -0.48805,0.128485 -0.637454,0 -0.647415,-0.405221 -0.02989,-0.43487 -0.249005,-0.701723 -0.219125,-0.276736 -0.786857,-0.276736 -1.045823,0 -1.045823,1.136594 v 2.757475 q 0,1.136594 1.035863,1.136594 0.49801,0 0.766936,-0.286619 0.278886,-0.28662 0.278886,-0.849975 v -0.583122 h -0.806777 q -0.189244,0 -0.298806,-0.148251 -0.09961,-0.148251 -0.09961,-0.355804 0,-0.197668 0.109562,-0.345919 0.109568,-0.158135 0.288852,-0.158135 h 1.693237 q 0.189244,0 0.298806,0.128485 0.109563,0.118601 0.109563,0.286619 v 1.176127 q 0,1.176127 -0.637454,1.719716 -0.637454,0.543588 -1.703197,0.543588 -1.065744,0 -1.703198,-0.543588 -0.627494,-0.543589 -0.627494,-1.719716 z m -4.693907,0.968575 q 0,-0.770907 0.597613,-1.067409 0.597614,-0.306386 1.733078,-0.306386 h 0.47809 v -0.207552 q 0,-0.494171 -0.278885,-0.859858 -0.268927,-0.365686 -0.816739,-0.365686 -0.418329,0 -0.737056,0.148251 -0.318727,0.138368 -0.348607,0.138368 -0.139443,0 -0.229085,-0.128485 -0.07968,-0.138368 -0.07968,-0.286619 0,-0.227318 0.448209,-0.395337 0.458171,-0.177901 0.966142,-0.177901 0.976101,0 1.434271,0.553471 0.46813,0.543588 0.46813,1.363912 v 2.530156 q 0,0.128485 -0.119522,0.217436 -0.109563,0.07906 -0.288846,0.07906 -0.159364,0 -0.268926,-0.07906 -0.109563,-0.08895 -0.109563,-0.217436 v -0.395336 q -0.677294,0.770907 -1.503992,0.770907 -0.597614,0 -0.976101,-0.336037 -0.368529,-0.336036 -0.368529,-0.978459 z m 0.836659,-0.08895 q 0,0.365686 0.209164,0.553472 0.209164,0.187785 0.557772,0.187785 0.41833,0 0.806778,-0.326153 0.398408,-0.336036 0.398408,-0.681956 v -0.513938 h -0.348607 q -0.288846,0 -0.498011,0.01976 -0.209165,0.0099 -0.43825,0.0593 -0.219124,0.03954 -0.368527,0.128484 -0.139444,0.07906 -0.229086,0.227319 -0.08964,0.138368 -0.08964,0.34592 z M 17.37644,46.26051 v -1.037759 q 0,-0.761024 0.577693,-1.314496 0.587653,-0.553471 1.404391,-0.553471 0.776897,0 1.344628,0.523821 0.567733,0.513938 0.567733,1.294729 0,0.286619 -0.06972,0.46452 -0.06972,0.168019 -0.219125,0.247086 -0.139443,0.06918 -0.268926,0.08894 -0.119523,0.01976 -0.328687,0.01976 H 18.20314 v 0.296502 q 0,0.543588 0.388448,0.869742 0.398409,0.326152 1.025903,0.326152 0.328688,0 0.567733,-0.09884 0.249005,-0.09884 0.398409,-0.187785 0.149403,-0.09884 0.239044,-0.09884 0.139444,0 0.239045,0.128484 0.09961,0.118601 0.09961,0.247086 0,0.227319 -0.458171,0.464521 -0.448209,0.237202 -1.115543,0.237202 -0.976102,0 -1.593636,-0.523822 -0.617533,-0.533704 -0.617533,-1.393562 z m 0.826698,-0.820324 h 1.84264 q 0.258967,0 0.348608,-0.0593 0.08965,-0.06918 0.08965,-0.25697 0,-0.444753 -0.328688,-0.78079 -0.328686,-0.336036 -0.806777,-0.336036 -0.46813,0 -0.806777,0.316269 -0.338648,0.306386 -0.338648,0.761023 z m -5.905942,1.620881 q 0,-0.158135 0.109562,-0.306386 0.119523,-0.148251 0.258967,-0.148251 0.08964,0 0.229084,0.128484 0.139443,0.118602 0.288846,0.276736 0.149404,0.148252 0.46813,0.276736 0.318727,0.118601 0.717136,0.118601 0.647415,0 1.015942,-0.306387 0.368529,-0.316268 0.368529,-0.919157 0,-0.543589 -0.338647,-0.879625 -0.338648,-0.34592 -0.816739,-0.523822 -0.478089,-0.177901 -0.966141,-0.375569 -0.47809,-0.207552 -0.816737,-0.622656 -0.338648,-0.424987 -0.338648,-1.087176 0,-0.513939 0.199204,-0.889509 0.199205,-0.385454 0.527892,-0.573238 0.338647,-0.197669 0.697215,-0.28662 0.358568,-0.08895 0.766937,-0.08895 0.617534,0 1.175306,0.177901 0.567732,0.168018 0.567732,0.474404 0,0.138368 -0.09961,0.296503 -0.0996,0.158135 -0.258966,0.158135 -0.03984,0 -0.45817,-0.187785 -0.418329,-0.187785 -0.9263,-0.187785 -0.607573,0 -0.986061,0.247086 -0.368529,0.247085 -0.368529,0.78079 0,0.454637 0.338647,0.741257 0.338648,0.276735 0.816739,0.444753 0.48805,0.168019 0.966141,0.385454 0.47809,0.217436 0.816737,0.701723 0.338648,0.474404 0.338648,1.215661 0,1.027876 -0.597613,1.551697 -0.597613,0.523822 -1.583675,0.523822 -0.886459,0 -1.503993,-0.375571 -0.607573,-0.375569 -0.607573,-0.741256 z"
         style="stroke-width:0.270379" />
      <circle
         r="1.1644595"
         cy="9.0112219"
         cx="28.787254"
         id="path50-6-1-5-5-6-7-7-7-5"
         style="fill:#000000;fill-opacity:1;fill-rule:evenodd;stroke-width:0.162111" />
      <rect
         y="5.783474"
         x="28.423744"
         height="2.4597559"
         width="0.751297"
         id="rect877-43-5-9-9-49-3-5-9-2"
         style="fill:#000000;fill-opacity:1;stroke-width:0.162111" />
      <path
         id="path899-0-5-2-4-9-6-2-2-5"
         d="m 29.467189,10.005333 0.869926,0.898422 1.924386,0.305289 0.764487,-0.03489 v 0 l -0.105444,0.06978 h -0.171352"
         style="fill:none;stroke:#000000;stroke-width:0.162111px;stroke-linecap:butt;stroke-linejoin:miter;stroke-opacity:1" />
      <ellipse
         ry="0.62705475"
         rx="0.62323153"
         cy="10.98129"
         cx="33.583313"
         id="path901-3-4-2-6-08-4-4-0-4"
         style="fill:#000000;fill-opacity:1;stroke-width:0.162111" />
    </g>
    <text
       xml:space="preserve"
       style="font-style:normal;font-weight:normal;font-size:5.99722px;line-height:1.25;font-family:sans-serif;fill:#0c5a73;fill-opacity:1;stroke:none;stroke-width:0.185483"
       x="55.056244"
       y="58.088726"
       id="text1575-7-77-1-2-2-7"><tspan
         sodipodi:role="line"
         x="55.056244"
         y="58.088726"
         style="font-style:normal;font-variant:normal;font-weight:normal;font-stretch:normal;font-size:5.99722px;font-family:Dosis;-inkscape-font-specification:Dosis;text-align:center;text-anchor:middle;fill:#0c5a73;fill-opacity:1;stroke-width:0.185483"
         id="tspan1577-4-71-3-2-8-6">SEATTLE GNU/LINUX CONFERENCE </tspan><tspan
         sodipodi:role="line"
         x="55.056244"
         y="65.901512"
         style="font-style:normal;font-variant:normal;font-weight:normal;font-stretch:normal;font-size:5.99722px;font-family:Dosis;-inkscape-font-specification:Dosis;text-align:center;text-anchor:middle;fill:#0c5a73;fill-opacity:1;stroke-width:0.185483"
         id="tspan92692">RETURNS FOR THE NINTH YEAR!</tspan></text>
    <rect
       style="fill:#0c5a73;fill-opacity:1;stroke-width:0.521325"
       id="rect46585"
       width="113.02999"
       height="8.889986"
       x="-2.54"
       y="158.75"
       rx="1.384141e-11"
       ry="2.9093585e-11" />
    <g
       id="g60185">
      <text
         xml:space="preserve"
         style="font-style:normal;font-weight:normal;font-size:4.58611px;line-height:1.25;font-family:sans-serif;text-align:start;text-anchor:start;fill:#0c5a73;fill-opacity:1;stroke:none;stroke-width:0.15312"
         x="6.3433766"
         y="139.95544"
         id="text1575-2-8-2-9-3"><tspan
           sodipodi:role="line"
           x="6.3433766"
           y="139.95544"
           style="font-style:normal;font-variant:normal;font-weight:normal;font-stretch:normal;font-size:4.58611px;font-family:Lato;-inkscape-font-specification:Lato;text-align:start;text-anchor:start;fill:#0c5a73;fill-opacity:1;stroke-width:0.15312"
           id="tspan1577-3-1-2-5-6">November 5th &amp; 6th, 2021</tspan><tspan
           sodipodi:role="line"
           x="6.3433766"
           y="145.89554"
           style="font-style:normal;font-variant:normal;font-weight:normal;font-stretch:normal;font-size:4.58611px;font-family:Lato;-inkscape-font-specification:Lato;text-align:start;text-anchor:start;fill:#0c5a73;fill-opacity:1;stroke-width:0.15312"
           id="tspan1615-2-1-7-1">Virtual Conference</tspan></text>
      <path
         fill="#000000"
         d="m 85.771363,136.55986 h 0.633145 v 0.63315 h -0.633145 v -0.63315 m 0.633145,0 h 0.633145 v 0.63315 h -0.633145 v -0.63315 m 0.633145,0 h 0.633145 v 0.63315 h -0.633145 v -0.63315 m 0.633145,0 h 0.633146 v 0.63315 h -0.633146 v -0.63315 m 0.633146,0 h 0.633145 v 0.63315 h -0.633145 v -0.63315 m 0.633145,0 h 0.633145 v 0.63315 h -0.633145 v -0.63315 m 0.633145,0 h 0.633145 v 0.63315 h -0.633145 v -0.63315 m 1.26629,0 h 0.633146 v 0.63315 h -0.633146 v -0.63315 m 0.633146,0 h 0.633145 v 0.63315 H 91.46967 v -0.63315 m 0.633145,0 h 0.633145 v 0.63315 h -0.633145 v -0.63315 m 1.26629,0 h 0.633148 v 0.63315 h -0.633148 v -0.63315 m 1.266288,0 h 0.63315 v 0.63315 h -0.63315 v -0.63315 m 0.63315,0 h 0.63314 v 0.63315 h -0.63314 v -0.63315 m 1.89943,0 h 0.63315 v 0.63315 h -0.63315 v -0.63315 m 0.63315,0 h 0.63314 v 0.63315 h -0.63314 v -0.63315 m 0.63314,0 h 0.633147 v 0.63315 h -0.633147 v -0.63315 m 0.633147,0 h 0.63314 v 0.63315 h -0.63314 v -0.63315 m 0.63314,0 h 0.63315 v 0.63315 h -0.63315 v -0.63315 m 0.63315,0 h 0.63315 v 0.63315 h -0.63315 v -0.63315 m 0.63315,0 h 0.63314 v 0.63315 h -0.63314 v -0.63315 m -15.195487,0.63315 h 0.633145 v 0.63314 h -0.633145 v -0.63314 m 3.798871,0 h 0.633145 v 0.63314 h -0.633145 v -0.63314 m 6.331449,0 h 0.63315 v 0.63314 h -0.63315 v -0.63314 m 1.26629,0 h 0.63315 v 0.63314 h -0.63315 v -0.63314 m 3.798877,0 h 0.63314 v 0.63314 h -0.63314 v -0.63314 m -15.195487,0.63314 h 0.633145 v 0.63315 h -0.633145 v -0.63315 m 1.26629,0 h 0.633145 v 0.63315 h -0.633145 v -0.63315 m 0.633145,0 h 0.633146 v 0.63315 h -0.633146 v -0.63315 m 0.633146,0 h 0.633145 v 0.63315 h -0.633145 v -0.63315 m 1.26629,0 h 0.633145 v 0.63315 h -0.633145 v -0.63315 m 1.899436,0 h 0.633145 v 0.63315 H 91.46967 v -0.63315 m 1.26629,0 h 0.633145 v 0.63315 H 92.73596 v -0.63315 m 1.899433,0 h 0.63315 v 0.63315 h -0.63315 v -0.63315 m 2.53258,0 h 0.63315 v 0.63315 h -0.63315 v -0.63315 m 1.26629,0 h 0.633147 v 0.63315 h -0.633147 v -0.63315 m 0.633147,0 h 0.63314 v 0.63315 h -0.63314 v -0.63315 m 0.63314,0 h 0.63315 v 0.63315 h -0.63315 v -0.63315 m 1.26629,0 h 0.63315 v 0.63315 h -0.63315 v -0.63315 m -15.195477,0.63315 h 0.633145 v 0.63314 h -0.633145 v -0.63314 m 1.26629,0 h 0.633145 v 0.63314 h -0.633145 v -0.63314 m 0.633145,0 h 0.633146 v 0.63314 h -0.633146 v -0.63314 m 0.633146,0 h 0.633145 v 0.63314 h -0.633145 v -0.63314 m 1.26629,0 h 0.633145 v 0.63314 h -0.633145 v -0.63314 m 1.26629,0 h 0.633146 v 0.63314 h -0.633146 v -0.63314 m 0.633146,0 h 0.633145 v 0.63314 H 91.46967 v -0.63314 m 3.798873,0 h 0.63314 v 0.63314 h -0.63314 v -0.63314 m 0.63314,0 h 0.63315 v 0.63314 h -0.63315 v -0.63314 m 1.26629,0 h 0.63315 v 0.63314 h -0.63315 v -0.63314 m 1.26629,0 h 0.633147 v 0.63314 h -0.633147 v -0.63314 m 0.633147,0 h 0.63314 v 0.63314 h -0.63314 v -0.63314 m 0.63314,0 h 0.63315 v 0.63314 h -0.63315 v -0.63314 m 1.26629,0 h 0.63315 v 0.63314 h -0.63315 v -0.63314 m -15.195477,0.63314 h 0.633145 v 0.63315 h -0.633145 v -0.63315 m 1.26629,0 h 0.633145 v 0.63315 h -0.633145 v -0.63315 m 0.633145,0 h 0.633146 v 0.63315 h -0.633146 v -0.63315 m 0.633146,0 h 0.633145 v 0.63315 h -0.633145 v -0.63315 m 1.26629,0 h 0.633145 v 0.63315 h -0.633145 v -0.63315 m 1.26629,0 h 0.633146 v 0.63315 h -0.633146 v -0.63315 m 0.633146,0 h 0.633145 v 0.63315 H 91.46967 v -0.63315 m 0.633145,0 h 0.633145 v 0.63315 h -0.633145 v -0.63315 m 0.633145,0 h 0.633145 v 0.63315 H 92.73596 v -0.63315 m 0.633145,0 h 0.633148 v 0.63315 h -0.633148 v -0.63315 m 1.266288,0 h 0.63315 v 0.63315 h -0.63315 v -0.63315 m 0.63315,0 h 0.63314 v 0.63315 h -0.63314 v -0.63315 m 0.63314,0 h 0.63315 v 0.63315 h -0.63315 v -0.63315 m 1.26629,0 h 0.63315 v 0.63315 h -0.63315 v -0.63315 m 1.26629,0 h 0.633147 v 0.63315 h -0.633147 v -0.63315 m 0.633147,0 h 0.63314 v 0.63315 h -0.63314 v -0.63315 m 0.63314,0 h 0.63315 v 0.63315 h -0.63315 v -0.63315 m 1.2663,0 h 0.63314 v 0.63315 h -0.63314 v -0.63315 m -15.195487,0.63315 h 0.633145 v 0.63314 h -0.633145 v -0.63314 m 3.798871,0 h 0.633145 v 0.63314 h -0.633145 v -0.63314 m 1.26629,0 h 0.633146 v 0.63314 h -0.633146 v -0.63314 m 0.633146,0 h 0.633145 v 0.63314 H 91.46967 v -0.63314 m 1.899435,0 h 0.633148 v 0.63314 h -0.633148 v -0.63314 m 3.798868,0 h 0.63315 v 0.63314 h -0.63315 v -0.63314 m 3.798877,0 h 0.63314 v 0.63314 h -0.63314 v -0.63314 m -15.195487,0.63314 h 0.633145 v 0.63315 h -0.633145 v -0.63315 m 0.633145,0 h 0.633145 v 0.63315 h -0.633145 v -0.63315 m 0.633145,0 h 0.633145 v 0.63315 h -0.633145 v -0.63315 m 0.633145,0 h 0.633146 v 0.63315 h -0.633146 v -0.63315 m 0.633146,0 h 0.633145 v 0.63315 h -0.633145 v -0.63315 m 0.633145,0 h 0.633145 v 0.63315 h -0.633145 v -0.63315 m 0.633145,0 h 0.633145 v 0.63315 h -0.633145 v -0.63315 m 1.26629,0 h 0.633146 v 0.63315 h -0.633146 v -0.63315 m 1.266291,0 h 0.633145 v 0.63315 h -0.633145 v -0.63315 m 1.26629,0 h 0.633148 v 0.63315 h -0.633148 v -0.63315 m 1.266288,0 h 0.63315 v 0.63315 h -0.63315 v -0.63315 m 1.26629,0 h 0.63315 v 0.63315 h -0.63315 v -0.63315 m 1.26629,0 h 0.63315 v 0.63315 h -0.63315 v -0.63315 m 0.63315,0 h 0.63314 v 0.63315 h -0.63314 v -0.63315 m 0.63314,0 h 0.633147 v 0.63315 h -0.633147 v -0.63315 m 0.633147,0 h 0.63314 v 0.63315 h -0.63314 v -0.63315 m 0.63314,0 h 0.63315 v 0.63315 h -0.63315 v -0.63315 m 0.63315,0 h 0.63315 v 0.63315 h -0.63315 v -0.63315 m 0.63315,0 h 0.63314 v 0.63315 h -0.63314 v -0.63315 m -10.130326,0.63315 h 0.633146 v 0.63314 h -0.633146 v -0.63314 m 0.633146,0 h 0.633145 v 0.63314 H 91.46967 v -0.63314 m 1.26629,0 h 0.633145 v 0.63314 H 92.73596 v -0.63314 m 0.633145,0 h 0.633148 v 0.63314 h -0.633148 v -0.63314 m 0.633148,0 h 0.63314 v 0.63314 h -0.63314 v -0.63314 m 1.89943,0 h 0.63315 v 0.63314 h -0.63315 v -0.63314 m -10.13032,0.63314 h 0.633145 v 0.63315 h -0.633145 v -0.63315 m 2.532581,0 h 0.633145 v 0.63315 h -0.633145 v -0.63315 m 1.26629,0 h 0.633145 v 0.63315 h -0.633145 v -0.63315 m 0.633145,0 h 0.633145 v 0.63315 h -0.633145 v -0.63315 m 0.633145,0 h 0.633146 v 0.63315 h -0.633146 v -0.63315 m 0.633146,0 h 0.633145 v 0.63315 H 91.46967 v -0.63315 m 1.26629,0 h 0.633145 v 0.63315 H 92.73596 v -0.63315 m 1.266293,0 h 0.63314 v 0.63315 h -0.63314 v -0.63315 m 1.89943,0 h 0.63315 v 0.63315 h -0.63315 v -0.63315 m 0.63315,0 h 0.63314 v 0.63315 h -0.63314 v -0.63315 m 0.63314,0 h 0.63315 v 0.63315 h -0.63315 v -0.63315 m 0.63315,0 h 0.63314 v 0.63315 h -0.63314 v -0.63315 m 0.63314,0 h 0.633147 v 0.63315 h -0.633147 v -0.63315 m 0.633147,0 h 0.63314 v 0.63315 h -0.63314 v -0.63315 m 1.89943,0 h 0.63315 v 0.63315 h -0.63315 v -0.63315 m -15.195477,0.63315 h 0.633145 v 0.63314 h -0.633145 v -0.63314 m 0.633145,0 h 0.633145 v 0.63314 h -0.633145 v -0.63314 m 0.633145,0 h 0.633145 v 0.63314 h -0.633145 v -0.63314 m 0.633145,0 h 0.633146 v 0.63314 h -0.633146 v -0.63314 m 1.266291,0 h 0.633145 v 0.63314 h -0.633145 v -0.63314 m 1.26629,0 h 0.633145 v 0.63314 h -0.633145 v -0.63314 m 0.633145,0 h 0.633146 v 0.63314 h -0.633146 v -0.63314 m 3.165729,0 h 0.63314 v 0.63314 h -0.63314 v -0.63314 m 0.63314,0 h 0.63315 v 0.63314 h -0.63315 v -0.63314 m 0.63315,0 h 0.63314 v 0.63314 h -0.63314 v -0.63314 m 0.63314,0 h 0.63315 v 0.63314 h -0.63315 v -0.63314 m 2.53258,0 h 0.633147 v 0.63314 h -0.633147 v -0.63314 m 0.633147,0 h 0.63314 v 0.63314 h -0.63314 v -0.63314 m 1.26629,0 h 0.63314 v 0.63314 h -0.63314 v -0.63314 m -14.562337,0.63314 h 0.633145 v 0.63315 h -0.633145 v -0.63315 m 0.633145,0 h 0.633145 v 0.63315 h -0.633145 v -0.63315 m 1.26629,0 h 0.633146 v 0.63315 h -0.633146 v -0.63315 m 1.266291,0 h 0.633145 v 0.63315 h -0.633145 v -0.63315 m 0.633145,0 h 0.633145 v 0.63315 h -0.633145 v -0.63315 m 1.899436,0 h 0.633145 v 0.63315 H 91.46967 v -0.63315 m 1.26629,0 h 0.633145 v 0.63315 H 92.73596 v -0.63315 m 2.532583,0 h 0.63314 v 0.63315 h -0.63314 v -0.63315 m 2.53258,0 h 0.63314 v 0.63315 h -0.63314 v -0.63315 m 0.63314,0 h 0.633147 v 0.63315 h -0.633147 v -0.63315 m 0.633147,0 h 0.63314 v 0.63315 h -0.63314 v -0.63315 m 0.63314,0 h 0.63315 v 0.63315 h -0.63315 v -0.63315 m -13.929187,0.63315 h 0.633145 v 0.63314 h -0.633145 v -0.63314 m 0.633145,0 h 0.633145 v 0.63314 h -0.633145 v -0.63314 m 1.26629,0 h 0.633146 v 0.63314 h -0.633146 v -0.63314 m 0.633146,0 h 0.633145 v 0.63314 h -0.633145 v -0.63314 m 0.633145,0 h 0.633145 v 0.63314 h -0.633145 v -0.63314 m 3.165726,0 h 0.633145 v 0.63314 h -0.633145 v -0.63314 m 0.633145,0 h 0.633145 v 0.63314 H 92.73596 v -0.63314 m 0.633145,0 h 0.633148 v 0.63314 h -0.633148 v -0.63314 m 1.266288,0 h 0.63315 v 0.63314 h -0.63315 v -0.63314 m 5.065157,0 h 0.63315 v 0.63314 h -0.63315 v -0.63314 m 0.63315,0 h 0.63315 v 0.63314 h -0.63315 v -0.63314 m -13.929192,0.63314 h 0.633145 v 0.63315 h -0.633145 v -0.63315 m 0.633145,0 h 0.633145 v 0.63315 h -0.633145 v -0.63315 m 0.633145,0 h 0.633146 v 0.63315 h -0.633146 v -0.63315 m 0.633146,0 h 0.633145 v 0.63315 h -0.633145 v -0.63315 m 1.26629,0 h 0.633145 v 0.63315 h -0.633145 v -0.63315 m 0.633145,0 h 0.633145 v 0.63315 h -0.633145 v -0.63315 m 0.633145,0 h 0.633146 v 0.63315 h -0.633146 v -0.63315 m 0.633146,0 h 0.633145 v 0.63315 H 91.46967 v -0.63315 m 1.26629,0 h 0.633145 v 0.63315 H 92.73596 v -0.63315 m 1.266293,0 h 0.63314 v 0.63315 h -0.63314 v -0.63315 m 0.63314,0 h 0.63315 v 0.63315 h -0.63315 v -0.63315 m 0.63315,0 h 0.63314 v 0.63315 h -0.63314 v -0.63315 m 1.26629,0 h 0.63314 v 0.63315 h -0.63314 v -0.63315 m 0.63314,0 h 0.63315 v 0.63315 h -0.63315 v -0.63315 m 1.899437,0 h 0.63314 v 0.63315 h -0.63314 v -0.63315 m 0.63314,0 h 0.63315 v 0.63315 h -0.63315 v -0.63315 m 0.63315,0 h 0.63315 v 0.63315 h -0.63315 v -0.63315 m 0.63315,0 h 0.63314 v 0.63315 h -0.63314 v -0.63315 m -15.195487,0.63315 h 0.633145 v 0.63314 h -0.633145 v -0.63314 m 0.633145,0 h 0.633145 v 0.63314 h -0.633145 v -0.63314 m 0.633145,0 h 0.633145 v 0.63314 h -0.633145 v -0.63314 m 0.633145,0 h 0.633146 v 0.63314 h -0.633146 v -0.63314 m 0.633146,0 h 0.633145 v 0.63314 h -0.633145 v -0.63314 m 0.633145,0 h 0.633145 v 0.63314 h -0.633145 v -0.63314 m 1.899435,0 h 0.633146 v 0.63314 h -0.633146 v -0.63314 m 2.532581,0 h 0.633148 v 0.63314 h -0.633148 v -0.63314 m 1.899438,0 h 0.63314 v 0.63314 h -0.63314 v -0.63314 m 0.63314,0 h 0.63315 v 0.63314 h -0.63315 v -0.63314 m 2.53258,0 h 0.633147 v 0.63314 h -0.633147 v -0.63314 m 1.899437,0 h 0.63315 v 0.63314 h -0.63315 v -0.63314 m -13.296047,0.63314 h 0.633145 v 0.63315 h -0.633145 v -0.63315 m 0.633145,0 h 0.633146 v 0.63315 h -0.633146 v -0.63315 m 1.899436,0 h 0.633145 v 0.63315 h -0.633145 v -0.63315 m 1.899436,0 h 0.633145 v 0.63315 H 91.46967 v -0.63315 m 1.26629,0 h 0.633145 v 0.63315 H 92.73596 v -0.63315 m 0.633145,0 h 0.633148 v 0.63315 h -0.633148 v -0.63315 m 0.633148,0 h 0.63314 v 0.63315 h -0.63314 v -0.63315 m 0.63314,0 h 0.63315 v 0.63315 h -0.63315 v -0.63315 m 0.63315,0 h 0.63314 v 0.63315 h -0.63314 v -0.63315 m 0.63314,0 h 0.63315 v 0.63315 h -0.63315 v -0.63315 m 0.63315,0 h 0.63314 v 0.63315 h -0.63314 v -0.63315 m 1.26629,0 h 0.63314 v 0.63315 h -0.63314 v -0.63315 m 0.63314,0 h 0.633147 v 0.63315 h -0.633147 v -0.63315 m 0.633147,0 h 0.63314 v 0.63315 h -0.63314 v -0.63315 m 0.63314,0 h 0.63315 v 0.63315 h -0.63315 v -0.63315 m -12.662897,0.63315 h 0.633145 v 0.63314 h -0.633145 v -0.63314 m 1.899436,0 h 0.633145 v 0.63314 h -0.633145 v -0.63314 m 1.26629,0 h 0.633145 v 0.63314 h -0.633145 v -0.63314 m 1.266291,0 h 0.633145 v 0.63314 H 91.46967 v -0.63314 m 0.633145,0 h 0.633145 v 0.63314 h -0.633145 v -0.63314 m 0.633145,0 h 0.633145 v 0.63314 H 92.73596 v -0.63314 m 1.266293,0 h 0.63314 v 0.63314 h -0.63314 v -0.63314 m 3.79887,0 h 0.63314 v 0.63314 h -0.63314 v -0.63314 m 0.63314,0 h 0.633147 v 0.63314 h -0.633147 v -0.63314 m 1.266287,0 h 0.63315 v 0.63314 h -0.63315 v -0.63314 m 0.63315,0 h 0.63315 v 0.63314 h -0.63315 v -0.63314 m -14.562337,0.63314 h 0.633145 v 0.63315 h -0.633145 v -0.63315 m 0.633145,0 h 0.633145 v 0.63315 h -0.633145 v -0.63315 m 0.633145,0 h 0.633145 v 0.63315 h -0.633145 v -0.63315 m 1.266291,0 h 0.633145 v 0.63315 h -0.633145 v -0.63315 m 1.26629,0 h 0.633145 v 0.63315 h -0.633145 v -0.63315 m 0.633145,0 h 0.633145 v 0.63315 h -0.633145 v -0.63315 m 0.633145,0 h 0.633146 v 0.63315 h -0.633146 v -0.63315 m 0.633146,0 h 0.633145 v 0.63315 H 91.46967 v -0.63315 m 1.899435,0 h 0.633148 v 0.63315 h -0.633148 v -0.63315 m 0.633148,0 h 0.63314 v 0.63315 h -0.63314 v -0.63315 m 1.26629,0 h 0.63314 v 0.63315 h -0.63314 v -0.63315 m 0.63314,0 h 0.63315 v 0.63315 h -0.63315 v -0.63315 m 0.63315,0 h 0.63314 v 0.63315 h -0.63314 v -0.63315 m 0.63314,0 h 0.63315 v 0.63315 h -0.63315 v -0.63315 m 0.63315,0 h 0.63314 v 0.63315 h -0.63314 v -0.63315 m 0.63314,0 h 0.633147 v 0.63315 h -0.633147 v -0.63315 m 0.633147,0 h 0.63314 v 0.63315 h -0.63314 v -0.63315 m 0.63314,0 h 0.63315 v 0.63315 h -0.63315 v -0.63315 m -8.864026,0.63315 h 0.633146 v 0.63314 h -0.633146 v -0.63314 m 0.633146,0 h 0.633145 v 0.63314 H 91.46967 v -0.63314 m 2.532583,0 h 0.63314 v 0.63314 h -0.63314 v -0.63314 m 0.63314,0 h 0.63315 v 0.63314 h -0.63315 v -0.63314 m 1.26629,0 h 0.63315 v 0.63314 h -0.63315 v -0.63314 m 2.53258,0 h 0.633147 v 0.63314 h -0.633147 v -0.63314 m -12.6629,0.63314 h 0.633145 v 0.63315 h -0.633145 v -0.63315 m 0.633145,0 h 0.633145 v 0.63315 h -0.633145 v -0.63315 m 0.633145,0 h 0.633145 v 0.63315 h -0.633145 v -0.63315 m 0.633145,0 h 0.633146 v 0.63315 h -0.633146 v -0.63315 m 0.633146,0 h 0.633145 v 0.63315 h -0.633145 v -0.63315 m 0.633145,0 h 0.633145 v 0.63315 h -0.633145 v -0.63315 m 0.633145,0 h 0.633145 v 0.63315 h -0.633145 v -0.63315 m 1.26629,0 h 0.633146 v 0.63315 h -0.633146 v -0.63315 m 5.065159,0 h 0.63315 v 0.63315 h -0.63315 v -0.63315 m 1.26629,0 h 0.63315 v 0.63315 h -0.63315 v -0.63315 m 1.26629,0 h 0.633147 v 0.63315 h -0.633147 v -0.63315 m -12.6629,0.63315 h 0.633145 v 0.63314 h -0.633145 v -0.63314 m 3.798871,0 h 0.633145 v 0.63314 h -0.633145 v -0.63314 m 1.899436,0 h 0.633145 v 0.63314 H 91.46967 v -0.63314 m 1.899435,0 h 0.633148 v 0.63314 h -0.633148 v -0.63314 m 1.266288,0 h 0.63315 v 0.63314 h -0.63315 v -0.63314 m 0.63315,0 h 0.63314 v 0.63314 h -0.63314 v -0.63314 m 0.63314,0 h 0.63315 v 0.63314 h -0.63315 v -0.63314 m 2.53258,0 h 0.633147 v 0.63314 h -0.633147 v -0.63314 m 0.633147,0 h 0.63314 v 0.63314 h -0.63314 v -0.63314 m 0.63314,0 h 0.63315 v 0.63314 h -0.63315 v -0.63314 m 0.63315,0 h 0.63315 v 0.63314 h -0.63315 v -0.63314 m 0.63315,0 h 0.63314 v 0.63314 h -0.63314 v -0.63314 m -15.195487,0.63314 h 0.633145 v 0.63315 h -0.633145 v -0.63315 m 1.26629,0 h 0.633145 v 0.63315 h -0.633145 v -0.63315 m 0.633145,0 h 0.633146 v 0.63315 h -0.633146 v -0.63315 m 0.633146,0 h 0.633145 v 0.63315 h -0.633145 v -0.63315 m 1.26629,0 h 0.633145 v 0.63315 h -0.633145 v -0.63315 m 1.26629,0 h 0.633146 v 0.63315 h -0.633146 v -0.63315 m 1.266291,0 h 0.633145 v 0.63315 h -0.633145 v -0.63315 m 0.633145,0 h 0.633145 v 0.63315 H 92.73596 v -0.63315 m 1.266293,0 h 0.63314 v 0.63315 h -0.63314 v -0.63315 m 0.63314,0 h 0.63315 v 0.63315 h -0.63315 v -0.63315 m 1.26629,0 h 0.63315 v 0.63315 h -0.63315 v -0.63315 m 0.63315,0 h 0.63314 v 0.63315 h -0.63314 v -0.63315 m 0.63314,0 h 0.63315 v 0.63315 h -0.63315 v -0.63315 m 0.63315,0 h 0.63314 v 0.63315 h -0.63314 v -0.63315 m 0.63314,0 h 0.633147 v 0.63315 h -0.633147 v -0.63315 m 0.633147,0 h 0.63314 v 0.63315 h -0.63314 v -0.63315 m 0.63314,0 h 0.63315 v 0.63315 h -0.63315 v -0.63315 m 1.2663,0 h 0.63314 v 0.63315 h -0.63314 v -0.63315 m -15.195487,0.63315 h 0.633145 v 0.63315 h -0.633145 v -0.63315 m 1.26629,0 h 0.633145 v 0.63315 h -0.633145 v -0.63315 m 0.633145,0 h 0.633146 v 0.63315 h -0.633146 v -0.63315 m 0.633146,0 h 0.633145 v 0.63315 h -0.633145 v -0.63315 m 1.26629,0 h 0.633145 v 0.63315 h -0.633145 v -0.63315 m 1.899436,0 h 0.633145 v 0.63315 H 91.46967 v -0.63315 m 1.899435,0 h 0.633148 v 0.63315 h -0.633148 v -0.63315 m 3.165728,0 h 0.63314 v 0.63315 h -0.63314 v -0.63315 m 0.63314,0 h 0.63315 v 0.63315 h -0.63315 v -0.63315 m 0.63315,0 h 0.63314 v 0.63315 h -0.63314 v -0.63315 m 1.899427,0 h 0.63315 v 0.63315 h -0.63315 v -0.63315 m 0.63315,0 h 0.63315 v 0.63315 h -0.63315 v -0.63315 m 0.63315,0 h 0.63314 v 0.63315 h -0.63314 v -0.63315 m -15.195487,0.63315 h 0.633145 v 0.63314 h -0.633145 v -0.63314 m 1.26629,0 h 0.633145 v 0.63314 h -0.633145 v -0.63314 m 0.633145,0 h 0.633146 v 0.63314 h -0.633146 v -0.63314 m 0.633146,0 h 0.633145 v 0.63314 h -0.633145 v -0.63314 m 1.26629,0 h 0.633145 v 0.63314 h -0.633145 v -0.63314 m 2.532581,0 h 0.633145 v 0.63314 h -0.633145 v -0.63314 m 0.633145,0 h 0.633145 v 0.63314 H 92.73596 v -0.63314 m 0.633145,0 h 0.633148 v 0.63314 h -0.633148 v -0.63314 m 0.633148,0 h 0.63314 v 0.63314 h -0.63314 v -0.63314 m 0.63314,0 h 0.63315 v 0.63314 h -0.63315 v -0.63314 m 1.89944,0 h 0.63314 v 0.63314 h -0.63314 v -0.63314 m 0.63314,0 h 0.63315 v 0.63314 h -0.63315 v -0.63314 m 1.899437,0 h 0.63314 v 0.63314 h -0.63314 v -0.63314 m 1.26629,0 h 0.63315 v 0.63314 h -0.63315 v -0.63314 m -14.562337,0.63314 h 0.633145 v 0.63315 h -0.633145 v -0.63315 m 3.798871,0 h 0.633145 v 0.63315 h -0.633145 v -0.63315 m 1.899436,0 h 0.633145 v 0.63315 H 91.46967 v -0.63315 m 1.26629,0 h 0.633145 v 0.63315 H 92.73596 v -0.63315 m 1.266293,0 h 0.63314 v 0.63315 h -0.63314 v -0.63315 m 1.26629,0 h 0.63314 v 0.63315 h -0.63314 v -0.63315 m 2.53258,0 h 0.63314 v 0.63315 h -0.63314 v -0.63315 m 0.63314,0 h 0.633147 v 0.63315 h -0.633147 v -0.63315 m 0.633147,0 h 0.63314 v 0.63315 h -0.63314 v -0.63315 m 0.63314,0 h 0.63315 v 0.63315 h -0.63315 v -0.63315 m 0.63315,0 h 0.63315 v 0.63315 h -0.63315 v -0.63315 m -14.562337,0.63315 h 0.633145 v 0.63314 h -0.633145 v -0.63314 m 0.633145,0 h 0.633145 v 0.63314 h -0.633145 v -0.63314 m 0.633145,0 h 0.633145 v 0.63314 h -0.633145 v -0.63314 m 0.633145,0 h 0.633146 v 0.63314 h -0.633146 v -0.63314 m 0.633146,0 h 0.633145 v 0.63314 h -0.633145 v -0.63314 m 0.633145,0 h 0.633145 v 0.63314 h -0.633145 v -0.63314 m 0.633145,0 h 0.633145 v 0.63314 h -0.633145 v -0.63314 m 1.26629,0 h 0.633146 v 0.63314 h -0.633146 v -0.63314 m 2.532581,0 h 0.633148 v 0.63314 h -0.633148 v -0.63314 m 0.633148,0 h 0.63314 v 0.63314 h -0.63314 v -0.63314 m 1.26629,0 h 0.63314 v 0.63314 h -0.63314 v -0.63314 m 1.26629,0 h 0.63314 v 0.63314 h -0.63314 v -0.63314 m 3.165717,0 h 0.63315 v 0.63314 h -0.63315 v -0.63314 m 0.63315,0 h 0.63315 v 0.63314 h -0.63315 v -0.63314 m 0.63315,0 h 0.63314 v 0.63314 h -0.63314 v -0.63314"
         id="path1053-3"
         style="stroke-width:0.0791432;shape-rendering:crispEdges" />
      <text
         xml:space="preserve"
         style="font-style:normal;font-weight:normal;font-size:3.88056px;line-height:1.25;font-family:sans-serif;fill:#565656;fill-opacity:1;stroke:none;stroke-width:0.264583"
         x="6.2964892"
         y="151.57982"
         id="text167924"><tspan
           sodipodi:role="line"
           id="tspan167922"
           style="font-style:italic;font-size:3.88056px;fill:#565656;fill-opacity:1;stroke-width:0.264583"
           x="6.2964892"
           y="151.57982">seagl.org</tspan></text>
    </g>
    <g
       id="g60177"
       transform="translate(0,11.743351)">
      <text
         xml:space="preserve"
         id="text10968-3-4"
         style="font-style:normal;font-weight:normal;font-size:6.99391px;line-height:1.25;font-family:sans-serif;white-space:pre;shape-inside:url(#rect10970-2-3);fill:#000000;fill-opacity:1;stroke:none"
         x="85.27076"
         y="0"
         transform="matrix(0.55484775,0,0,0.55484775,1499.5354,-2941.628)"><tspan
           x="-2685.9625"
           y="5426.184"
           id="tspan61201"><tspan
             style="font-family:Lato;-inkscape-font-specification:Lato;text-align:center;text-anchor:middle"
             id="tspan61195">We’re an annual community-focused </tspan><tspan
             style="font-family:Lato;-inkscape-font-specification:Lato"
             id="tspan61197">free/libre/open</tspan><tspan
             style="fill:#0c5a73"
             id="tspan61199"> </tspan></tspan><tspan
           x="-2690.1851"
           y="5435.2426"
           id="tspan61221"><tspan
             style="font-family:Lato;-inkscape-font-specification:Lato"
             id="tspan61203">source software</tspan><tspan
             style="font-family:Lato;-inkscape-font-specification:Lato"
             id="tspan61205">,</tspan><tspan
             style="font-family:Lato;-inkscape-font-specification:Lato"
             id="tspan61207"> hardware</tspan><tspan
             style="font-family:Lato;-inkscape-font-specification:Lato"
             id="tspan61209">,</tspan><tspan
             style="font-family:Lato;-inkscape-font-specification:Lato"
             id="tspan61211"> </tspan><tspan
             style="font-family:Lato;-inkscape-font-specification:Lato"
             id="tspan61213">and</tspan><tspan
             style="font-family:Lato;-inkscape-font-specification:Lato"
             id="tspan61215"> </tspan><tspan
             style="font-family:Lato;-inkscape-font-specification:Lato"
             id="tspan61217">culture</tspan><tspan
             style="font-family:Lato;-inkscape-font-specification:Lato;text-align:center;text-anchor:middle"
             id="tspan61219"> event in Seattle, </tspan></tspan><tspan
           x="-2686.501"
           y="5444.3012"
           id="tspan61229"><tspan
             style="font-family:Lato;-inkscape-font-specification:Lato;text-align:center;text-anchor:middle"
             id="tspan61223">and since last year, </tspan><tspan
             style="font-style:italic;font-family:Lato;-inkscape-font-specification:'Lato Italic'"
             id="tspan61225">virtually</tspan><tspan
             style="font-family:Lato;-inkscape-font-specification:Lato;text-align:center;text-anchor:middle"
             id="tspan61227"> all over the world! Join us
</tspan></tspan><tspan
           x="-2655.4866"
           y="5453.3598"
           id="tspan61233"><tspan
             style="font-family:Lato;-inkscape-font-specification:Lato;text-align:center;text-anchor:middle"
             id="tspan61231">for free, no registration required!</tspan></tspan></text>
      <text
         xml:space="preserve"
         id="text10978-6-8"
         style="font-style:normal;font-variant:normal;font-weight:normal;font-stretch:normal;font-size:6.99391px;line-height:1.25;font-family:Lato;-inkscape-font-specification:Lato;white-space:pre;shape-inside:url(#rect10980-6-9);fill:#000000;fill-opacity:1;stroke:none"
         x="169.7397"
         y="0"
         transform="matrix(0.55484775,0,0,0.55484775,1499.3321,-2917.8685)"><tspan
           x="-2682.8799"
           y="5426.184"
           id="tspan61243"><tspan
             style="text-align:center;text-anchor:middle"
             id="tspan61235">Featuring keynotes from </tspan><tspan
             style="fill:#0c5a73"
             id="tspan61237">Marie Nordin</tspan><tspan
             style="text-align:center;text-anchor:middle"
             id="tspan61239">, </tspan><tspan
             style="fill:#0c5a73"
             id="tspan61241">Christine &amp; </tspan></tspan><tspan
           x="-2678.2325"
           y="5434.9262"
           id="tspan61255"><tspan
             style="fill:#0c5a73"
             id="tspan61245">Morgan Lemmer-Webber</tspan><tspan
             style="text-align:center;text-anchor:middle"
             id="tspan61247">, </tspan><tspan
             style="fill:#0c5a73"
             id="tspan61249">Elana Hashman</tspan><tspan
             style="text-align:center;text-anchor:middle"
             id="tspan61251">, </tspan><tspan
             style="fill:#0c5a73"
             id="tspan61253">Cory </tspan></tspan><tspan
           x="-2688.6551"
           y="5443.6684"
           id="tspan61261"><tspan
   style="fill:#0c5a73"
   id="tspan61257">Doctorow</tspan><tspan
   style="font-weight:bold"
   id="tspan61259"> </tspan>and dozens of presentations, plus social and </tspan><tspan
           x="-2690.9124"
           y="5452.4106"
           id="tspan61267">networking events like the <tspan
   style="fill:#0c5a73"
   id="tspan61263">Career Expo</tspan><tspan
   style="font-weight:bold"
   id="tspan61265"> </tspan>and our shipped </tspan><tspan
           x="-2657.4344"
           y="5461.1528"
           id="tspan61271">tea swap with virtual <tspan
   style="fill:#0c5a73"
   id="tspan61269">TeaGL</tspan> party!</tspan></text>
    </g>
    <text
       xml:space="preserve"
       id="text10984-5-9-9"
       style="font-style:normal;font-weight:normal;font-size:7.05556px;line-height:1.25;font-family:sans-serif;white-space:pre;shape-inside:url(#rect10986-4-4-9);fill:#000000;fill-opacity:1;stroke:none"
       x="85.27076"
       y="0"
       transform="matrix(0.5572269,0,0,0.5572269,1748.8496,-2497.6699)" />
  </g>
</svg>
